<svg id="svg" version="1.1" xmlns="http://www.w3.org/2000/svg" xmlns:xlink="http://www.w3.org/1999/xlink" width="400"
     height="400" viewBox="0, 0, 400,400">
    <!-- Icon made by Freepik from www.flaticon.com -->
    <g id="svgg">
        <path id="path0"
              d="M212.480 57.500 C 212.234 58.325,211.927 59.630,211.797 60.400 C 211.668 61.170,211.461 62.387,211.337 63.104 C 211.213 63.821,210.951 64.506,210.756 64.627 C 210.560 64.748,210.400 65.199,210.400 65.629 C 210.400 66.059,210.241 66.723,210.047 67.105 C 209.852 67.487,209.515 68.250,209.297 68.800 C 208.412 71.035,206.934 73.956,205.308 76.680 C 203.117 80.353,202.949 80.800,203.757 80.800 C 204.111 80.800,204.400 80.980,204.400 81.200 C 204.400 81.420,204.940 81.600,205.600 81.600 C 206.260 81.600,206.800 81.780,206.800 82.000 C 206.800 82.220,207.160 82.400,207.600 82.400 C 208.040 82.400,208.400 82.580,208.400 82.800 C 208.400 83.020,208.839 83.200,209.376 83.200 C 209.913 83.200,210.464 83.380,210.600 83.600 C 210.736 83.820,211.197 84.000,211.624 84.000 C 212.051 84.000,212.400 84.180,212.400 84.400 C 212.400 84.620,212.850 84.800,213.400 84.800 C 213.950 84.800,214.400 84.980,214.400 85.200 C 214.400 85.420,214.850 85.600,215.400 85.600 C 215.950 85.600,216.400 85.780,216.400 86.000 C 216.400 86.220,216.850 86.400,217.400 86.400 C 217.950 86.400,218.400 86.580,218.400 86.800 C 218.400 87.020,218.760 87.200,219.200 87.200 C 219.640 87.200,220.000 87.380,220.000 87.600 C 220.000 87.820,220.416 88.000,220.925 88.000 C 221.434 88.000,222.595 88.360,223.506 88.800 C 224.416 89.240,225.316 89.600,225.506 89.600 C 225.695 89.600,226.605 89.965,227.527 90.410 C 228.450 90.856,229.744 91.329,230.402 91.460 C 231.061 91.592,231.600 91.858,231.600 92.050 C 231.600 92.243,232.140 92.400,232.800 92.400 C 233.460 92.400,234.000 92.580,234.000 92.800 C 234.000 93.020,234.349 93.200,234.776 93.200 C 235.203 93.200,235.664 93.380,235.800 93.600 C 235.936 93.820,236.487 94.000,237.024 94.000 C 237.561 94.000,238.000 94.180,238.000 94.400 C 238.000 94.620,238.360 94.800,238.800 94.800 C 239.240 94.800,239.600 94.980,239.600 95.200 C 239.600 95.420,240.140 95.600,240.800 95.600 C 241.460 95.600,242.000 95.780,242.000 96.000 C 242.000 96.220,242.272 96.400,242.605 96.400 C 242.938 96.400,243.523 96.557,243.905 96.750 C 247.011 98.314,248.179 98.800,248.838 98.800 C 249.257 98.800,249.600 98.980,249.600 99.200 C 249.600 99.420,249.949 99.600,250.376 99.600 C 250.803 99.600,251.264 99.780,251.400 100.000 C 251.536 100.220,252.087 100.400,252.624 100.400 C 253.161 100.400,253.600 100.580,253.600 100.800 C 253.600 101.020,254.061 101.200,254.624 101.200 C 255.187 101.200,255.560 101.342,255.452 101.515 C 255.345 101.688,255.740 101.870,256.329 101.919 C 256.918 101.967,257.460 102.185,257.533 102.403 C 257.607 102.622,257.924 102.800,258.239 102.800 C 258.553 102.800,259.123 102.965,259.505 103.167 C 260.810 103.857,263.991 105.200,264.321 105.200 C 264.502 105.200,265.395 105.560,266.306 106.000 C 267.216 106.440,268.116 106.800,268.306 106.800 C 268.495 106.800,269.362 107.144,270.232 107.564 C 271.102 107.985,272.486 108.455,273.307 108.609 C 274.128 108.763,274.800 109.049,274.800 109.245 C 274.800 109.440,275.126 109.600,275.525 109.600 C 275.924 109.600,276.995 109.960,277.906 110.400 C 278.816 110.840,279.840 111.200,280.181 111.200 C 280.521 111.200,280.800 111.380,280.800 111.600 C 280.800 111.820,281.160 112.000,281.600 112.000 C 282.040 112.000,282.400 112.180,282.400 112.400 C 282.400 112.620,282.940 112.800,283.600 112.800 C 284.260 112.800,284.800 112.980,284.800 113.200 C 284.800 113.420,285.160 113.600,285.600 113.600 C 286.040 113.600,286.400 113.780,286.400 114.000 C 286.400 114.220,286.940 114.400,287.600 114.400 C 288.260 114.400,288.800 114.580,288.800 114.800 C 288.800 115.020,289.160 115.200,289.600 115.200 C 290.040 115.200,290.400 115.380,290.400 115.600 C 290.400 115.820,290.940 116.000,291.600 116.000 C 292.260 116.000,292.800 116.180,292.800 116.400 C 292.800 116.620,293.160 116.800,293.600 116.800 C 294.040 116.800,294.400 116.980,294.400 117.200 C 294.400 117.420,294.850 117.600,295.400 117.600 C 295.950 117.600,296.400 117.780,296.400 118.000 C 296.400 118.220,296.749 118.400,297.176 118.400 C 297.603 118.400,298.064 118.580,298.200 118.800 C 299.093 120.245,299.705 119.115,300.803 114.000 C 301.673 109.942,302.530 107.479,304.560 103.200 C 305.611 100.985,306.829 98.771,307.201 98.400 C 307.311 98.290,307.656 97.705,307.968 97.100 C 308.280 96.495,308.685 96.000,308.868 96.000 C 309.050 96.000,309.200 95.591,309.200 95.090 C 309.200 94.191,304.570 92.000,302.668 92.000 C 302.300 92.000,302.000 91.820,302.000 91.600 C 302.000 91.380,301.640 91.200,301.200 91.200 C 300.760 91.200,300.400 91.020,300.400 90.800 C 300.400 90.580,299.860 90.400,299.200 90.400 C 298.540 90.400,298.000 90.220,298.000 90.000 C 298.000 89.780,297.651 89.600,297.224 89.600 C 296.797 89.600,296.336 89.420,296.200 89.200 C 296.064 88.980,295.513 88.800,294.976 88.800 C 294.439 88.800,294.000 88.620,294.000 88.400 C 294.000 88.180,293.728 88.000,293.395 88.000 C 292.807 88.000,292.382 87.833,290.505 86.862 C 290.013 86.608,289.338 86.400,289.005 86.400 C 288.672 86.400,288.400 86.220,288.400 86.000 C 288.400 85.780,287.961 85.600,287.424 85.600 C 286.887 85.600,286.336 85.420,286.200 85.200 C 286.064 84.980,285.603 84.800,285.176 84.800 C 284.749 84.800,284.400 84.620,284.400 84.400 C 284.400 84.180,283.950 84.000,283.400 84.000 C 282.850 84.000,282.400 83.853,282.400 83.672 C 282.400 83.492,281.500 83.100,280.400 82.800 C 279.300 82.500,278.400 82.108,278.400 81.928 C 278.400 81.747,277.950 81.600,277.400 81.600 C 276.850 81.600,276.400 81.420,276.400 81.200 C 276.400 80.980,276.045 80.800,275.612 80.800 C 275.179 80.800,274.183 80.440,273.400 80.000 C 272.617 79.560,271.621 79.200,271.188 79.200 C 270.755 79.200,270.400 79.048,270.400 78.863 C 270.400 78.678,269.635 78.300,268.700 78.022 C 267.765 77.744,266.820 77.383,266.600 77.220 C 266.380 77.056,265.077 76.580,263.703 76.161 C 262.330 75.743,261.205 75.265,261.203 75.100 C 261.202 74.935,260.660 74.800,260.000 74.800 C 259.340 74.800,258.800 74.620,258.800 74.400 C 258.800 74.180,258.440 74.000,258.000 74.000 C 257.560 74.000,257.200 73.820,257.200 73.600 C 257.200 73.380,256.750 73.200,256.200 73.200 C 255.650 73.200,255.200 73.020,255.200 72.800 C 255.200 72.580,254.851 72.400,254.424 72.400 C 253.997 72.400,253.536 72.220,253.400 72.000 C 253.264 71.780,252.713 71.600,252.176 71.600 C 251.639 71.600,251.200 71.420,251.200 71.200 C 251.200 70.980,250.840 70.800,250.400 70.800 C 249.960 70.800,249.600 70.620,249.600 70.400 C 249.600 70.180,249.060 70.000,248.400 70.000 C 247.740 70.000,247.200 69.820,247.200 69.600 C 247.200 69.380,246.840 69.200,246.400 69.200 C 245.960 69.200,245.600 69.020,245.600 68.800 C 245.600 68.580,245.060 68.400,244.400 68.400 C 243.740 68.400,243.200 68.220,243.200 68.000 C 243.200 67.780,242.840 67.600,242.400 67.600 C 241.960 67.600,241.600 67.420,241.600 67.200 C 241.600 66.980,241.060 66.800,240.400 66.800 C 239.740 66.800,239.199 66.665,239.197 66.500 C 239.193 66.139,237.255 65.200,236.515 65.200 C 236.023 65.200,234.448 64.448,234.000 64.000 C 233.890 63.890,233.440 63.745,233.000 63.677 C 232.560 63.609,231.437 63.204,230.504 62.777 C 229.572 62.350,228.661 62.000,228.479 62.000 C 228.298 62.000,227.405 61.640,226.494 61.200 C 225.584 60.760,224.571 60.400,224.243 60.400 C 223.915 60.400,223.545 60.234,223.419 60.031 C 223.294 59.828,222.614 59.535,221.909 59.380 C 221.203 59.225,220.260 58.913,219.813 58.687 C 217.905 57.721,217.571 57.600,216.805 57.600 C 216.362 57.600,216.000 57.420,216.000 57.200 C 216.000 56.980,215.640 56.800,215.200 56.800 C 214.760 56.800,214.400 56.620,214.400 56.400 C 214.400 55.254,212.893 56.118,212.480 57.500 M118.318 78.957 C 116.289 81.073,115.200 82.341,115.200 82.590 C 115.200 82.734,114.255 83.820,113.100 85.003 C 110.636 87.527,107.855 90.713,107.670 91.222 C 107.487 91.726,104.801 94.376,104.794 94.060 C 104.791 93.917,104.656 94.002,104.494 94.248 C 103.999 95.004,100.711 98.769,98.600 100.998 C 97.500 102.159,95.880 103.960,95.000 104.998 C 94.120 106.037,92.527 107.812,91.459 108.943 C 90.392 110.074,88.593 112.080,87.462 113.400 C 86.332 114.720,84.325 116.912,83.003 118.270 C 81.681 119.629,80.160 121.312,79.623 122.010 C 78.580 123.366,77.336 124.759,74.692 127.530 C 72.704 129.613,72.830 129.975,76.247 132.000 C 81.464 135.092,86.917 140.017,89.996 144.419 C 90.935 145.761,92.336 147.200,92.704 147.200 C 93.019 147.200,97.200 142.617,97.200 142.272 C 97.200 142.091,97.470 141.673,97.800 141.343 C 98.130 141.013,98.400 140.853,98.400 140.987 C 98.400 141.364,101.551 138.033,104.100 134.963 C 105.361 133.443,107.654 130.850,109.194 129.200 C 110.735 127.550,111.997 126.020,111.999 125.800 C 112.001 125.580,112.533 125.044,113.182 124.610 C 113.831 124.175,114.580 123.410,114.848 122.910 C 115.116 122.410,115.416 122.082,115.515 122.182 C 115.738 122.404,116.222 121.903,118.006 119.601 C 118.773 118.612,120.120 117.063,121.000 116.160 C 124.246 112.829,126.000 110.766,126.000 110.278 C 126.000 110.002,126.387 109.512,126.860 109.188 C 128.344 108.173,133.200 103.123,133.200 102.595 C 133.200 102.411,134.953 100.534,138.616 96.796 C 139.901 95.484,139.857 94.981,138.400 94.336 C 137.740 94.044,137.200 93.669,137.200 93.502 C 137.200 93.336,137.007 93.200,136.772 93.200 C 135.125 93.200,126.420 85.721,123.270 81.600 C 122.681 80.831,121.885 79.852,121.500 79.425 C 121.115 78.998,120.800 78.503,120.800 78.325 C 120.800 77.636,119.193 78.046,118.318 78.957 M327.028 171.300 C 326.766 172.194,325.573 179.369,325.498 180.500 C 325.458 181.105,325.285 181.600,325.113 181.600 C 324.941 181.600,324.800 182.500,324.800 183.600 C 324.800 184.700,324.620 185.600,324.400 185.600 C 324.180 185.600,324.000 186.500,324.000 187.600 C 324.000 188.700,323.820 189.600,323.600 189.600 C 323.380 189.600,323.200 190.500,323.200 191.600 C 323.200 192.700,323.020 193.600,322.800 193.600 C 322.580 193.600,322.400 194.500,322.400 195.600 C 322.400 196.700,322.220 197.600,322.000 197.600 C 321.780 197.600,321.600 198.399,321.600 199.376 C 321.600 200.353,321.420 201.264,321.200 201.400 C 320.980 201.536,320.800 202.447,320.800 203.424 C 320.800 204.401,320.620 205.200,320.400 205.200 C 320.180 205.200,320.000 206.100,320.000 207.200 C 320.000 208.300,319.837 209.200,319.639 209.200 C 319.440 209.200,319.177 210.055,319.054 211.100 C 318.559 215.318,318.339 216.636,318.002 217.400 C 317.808 217.840,317.556 218.830,317.441 219.600 C 317.327 220.370,317.037 221.990,316.796 223.200 C 316.556 224.410,316.260 226.120,316.139 227.000 C 316.017 227.880,315.756 228.771,315.559 228.980 C 315.362 229.189,315.200 230.008,315.200 230.800 C 315.200 231.592,315.037 232.411,314.837 232.620 C 314.637 232.829,314.374 233.900,314.252 235.000 C 313.847 238.662,313.519 240.400,313.233 240.400 C 313.077 240.400,312.905 241.251,312.852 242.291 C 312.798 243.331,312.629 244.276,312.477 244.391 C 312.325 244.506,312.136 245.410,312.057 246.400 C 311.979 247.390,311.709 248.332,311.457 248.494 C 311.206 248.656,311.106 248.791,311.237 248.794 C 311.367 248.797,311.313 249.655,311.118 250.700 C 310.751 252.664,310.213 255.815,309.771 258.600 C 309.631 259.480,309.349 260.406,309.145 260.658 C 308.184 261.838,309.921 262.400,314.529 262.400 C 320.247 262.401,326.657 263.685,331.394 265.780 C 334.799 267.286,335.471 267.181,335.736 265.100 C 335.855 264.165,336.154 262.410,336.400 261.200 C 336.646 259.990,336.944 258.190,337.062 257.200 C 337.181 256.210,337.440 255.229,337.639 255.020 C 337.837 254.811,338.000 253.992,338.000 253.200 C 338.000 252.408,338.163 251.589,338.361 251.380 C 338.560 251.171,338.819 250.190,338.938 249.200 C 339.056 248.210,339.344 246.455,339.576 245.300 C 339.809 244.145,340.162 242.345,340.359 241.300 C 340.557 240.255,340.833 238.950,340.973 238.400 C 341.114 237.850,341.338 236.185,341.472 234.700 C 341.606 233.215,341.870 232.000,342.058 232.000 C 342.246 232.000,342.400 231.201,342.400 230.224 C 342.400 229.247,342.580 228.336,342.800 228.200 C 343.020 228.064,343.200 227.074,343.200 226.000 C 343.200 224.926,343.380 223.936,343.600 223.800 C 343.820 223.664,344.000 222.854,344.000 222.000 C 344.000 221.146,344.180 220.336,344.400 220.200 C 344.620 220.064,344.800 219.164,344.800 218.200 C 344.800 217.236,344.980 216.336,345.200 216.200 C 345.420 216.064,345.600 215.164,345.600 214.200 C 345.600 213.236,345.780 212.336,346.000 212.200 C 346.220 212.064,346.400 211.053,346.400 209.953 C 346.400 208.721,346.554 208.048,346.800 208.200 C 347.047 208.352,347.200 207.671,347.200 206.424 C 347.200 205.311,347.380 204.400,347.600 204.400 C 347.820 204.400,348.000 203.500,348.000 202.400 C 348.000 201.300,348.180 200.400,348.400 200.400 C 348.620 200.400,348.800 199.500,348.800 198.400 C 348.800 197.300,348.980 196.400,349.200 196.400 C 349.420 196.400,349.600 195.500,349.600 194.400 C 349.600 193.300,349.780 192.400,350.000 192.400 C 350.220 192.400,350.400 191.601,350.400 190.624 C 350.400 189.647,350.580 188.736,350.800 188.600 C 351.020 188.464,351.200 187.553,351.200 186.576 C 351.200 185.599,351.346 184.800,351.525 184.800 C 351.704 184.800,351.894 183.945,351.947 182.900 C 352.000 181.855,352.213 180.940,352.421 180.867 C 352.630 180.793,352.800 179.848,352.800 178.767 C 352.800 177.685,352.980 176.800,353.200 176.800 C 353.420 176.800,353.600 176.449,353.600 176.021 C 353.600 175.296,353.220 175.229,348.100 175.055 C 341.928 174.844,338.783 174.496,338.220 173.961 C 338.011 173.763,337.470 173.600,337.018 173.600 C 336.301 173.600,333.605 172.710,329.874 171.243 C 328.387 170.658,327.210 170.682,327.028 171.300 M79.452 215.943 C 78.497 216.998,71.914 220.553,68.600 221.803 C 67.060 222.384,65.487 223.026,65.105 223.230 C 64.723 223.433,63.879 223.600,63.229 223.600 C 62.579 223.600,61.936 223.780,61.800 224.000 C 61.664 224.220,60.879 224.400,60.056 224.400 C 57.846 224.400,56.995 225.664,57.966 227.505 C 58.387 228.303,59.085 229.981,60.419 233.400 C 60.934 234.720,61.680 236.340,62.076 237.000 C 62.473 237.660,62.798 238.605,62.799 239.100 C 62.799 239.595,62.980 240.000,63.200 240.000 C 63.420 240.000,63.600 240.360,63.600 240.800 C 63.600 241.240,63.736 241.600,63.902 241.600 C 64.200 241.600,65.200 244.125,65.288 245.100 C 65.313 245.375,65.483 245.600,65.667 245.600 C 65.850 245.600,66.000 245.960,66.000 246.400 C 66.000 246.840,66.180 247.200,66.400 247.200 C 66.620 247.200,66.800 247.472,66.800 247.805 C 66.800 248.138,66.960 248.723,67.156 249.105 C 67.352 249.487,67.912 250.700,68.400 251.800 C 68.888 252.900,69.448 254.113,69.644 254.495 C 69.840 254.877,70.000 255.462,70.000 255.795 C 70.000 256.128,70.180 256.400,70.400 256.400 C 70.620 256.400,70.800 256.672,70.800 257.005 C 70.800 257.593,70.967 258.018,71.938 259.895 C 72.192 260.387,72.400 261.062,72.400 261.395 C 72.400 261.728,72.580 262.000,72.800 262.000 C 73.020 262.000,73.200 262.360,73.200 262.800 C 73.200 263.240,73.380 263.600,73.600 263.600 C 73.820 263.600,74.000 264.050,74.000 264.600 C 74.000 265.150,74.180 265.600,74.400 265.600 C 74.620 265.600,74.800 266.050,74.800 266.600 C 74.800 267.150,74.980 267.600,75.200 267.600 C 75.420 267.600,75.600 267.848,75.600 268.152 C 75.600 268.455,76.064 269.760,76.632 271.052 C 77.732 273.556,78.194 274.661,78.743 276.100 C 78.932 276.595,79.472 277.782,79.943 278.738 C 80.414 279.694,80.800 280.729,80.800 281.038 C 80.800 281.347,80.980 281.600,81.200 281.600 C 81.420 281.600,81.600 281.879,81.600 282.219 C 81.600 282.560,81.960 283.584,82.400 284.494 C 82.840 285.405,83.200 286.386,83.200 286.675 C 83.200 286.964,83.380 287.200,83.600 287.200 C 83.820 287.200,84.000 287.650,84.000 288.200 C 84.000 288.750,84.180 289.200,84.400 289.200 C 84.620 289.200,84.800 289.434,84.800 289.720 C 84.800 290.456,85.741 292.393,86.100 292.397 C 86.265 292.399,86.400 292.755,86.400 293.188 C 86.400 293.621,86.760 294.617,87.200 295.400 C 87.640 296.183,88.000 297.089,88.000 297.412 C 88.000 297.735,88.180 298.000,88.400 298.000 C 88.620 298.000,88.800 298.540,88.800 299.200 C 88.800 299.860,88.980 300.400,89.200 300.400 C 89.420 300.400,89.600 300.760,89.600 301.200 C 89.600 301.640,89.780 302.000,90.000 302.000 C 90.220 302.000,90.400 302.360,90.400 302.800 C 90.400 303.240,90.580 303.600,90.800 303.600 C 91.020 303.600,91.200 304.050,91.200 304.600 C 91.200 305.150,91.380 305.600,91.600 305.600 C 91.820 305.600,92.000 305.823,92.000 306.096 C 92.000 307.191,93.438 309.997,94.000 309.998 C 94.330 309.998,95.230 309.459,96.000 308.800 C 96.770 308.141,97.625 307.601,97.900 307.601 C 98.175 307.600,98.401 307.465,98.403 307.300 C 98.405 307.135,98.810 306.799,99.303 306.554 C 99.796 306.309,101.370 305.520,102.800 304.802 C 104.230 304.083,105.805 303.338,106.300 303.147 C 106.795 302.956,107.605 302.641,108.100 302.446 C 108.595 302.251,109.810 301.870,110.800 301.599 C 111.790 301.328,113.122 300.948,113.760 300.753 C 114.398 300.559,115.429 300.400,116.052 300.400 C 117.255 300.400,118.288 298.429,117.263 298.088 C 117.008 298.003,116.800 297.605,116.800 297.204 C 116.800 296.575,116.305 295.393,114.750 292.305 C 114.557 291.923,114.400 291.338,114.400 291.005 C 114.400 290.672,114.220 290.400,114.000 290.400 C 113.780 290.400,113.600 290.040,113.600 289.600 C 113.600 289.160,113.420 288.800,113.200 288.800 C 112.980 288.800,112.800 288.445,112.800 288.012 C 112.800 287.579,112.440 286.583,112.000 285.800 C 111.560 285.017,111.200 284.111,111.200 283.788 C 111.200 283.465,111.020 283.200,110.800 283.200 C 110.580 283.200,110.400 282.750,110.400 282.200 C 110.400 281.650,110.220 281.200,110.000 281.200 C 109.780 281.200,109.600 280.958,109.600 280.661 C 109.600 280.365,109.291 279.510,108.914 278.761 C 108.537 278.013,108.196 277.198,108.157 276.951 C 108.118 276.704,107.778 275.804,107.402 274.951 C 107.026 274.098,106.575 273.040,106.399 272.600 C 106.223 272.160,105.702 270.947,105.240 269.904 C 104.778 268.862,104.400 267.737,104.400 267.404 C 104.400 267.072,104.220 266.800,104.000 266.800 C 103.780 266.800,103.600 266.528,103.600 266.195 C 103.600 265.862,103.432 265.277,103.226 264.895 C 103.021 264.513,102.617 263.615,102.329 262.900 C 102.040 262.185,101.701 261.600,101.575 261.600 C 101.448 261.600,101.100 260.700,100.800 259.600 C 100.500 258.500,100.108 257.600,99.928 257.600 C 99.747 257.600,99.600 257.240,99.600 256.800 C 99.600 256.360,99.420 256.000,99.200 256.000 C 98.980 256.000,98.800 255.728,98.800 255.395 C 98.800 255.062,98.620 254.432,98.400 253.995 C 98.180 253.558,97.820 252.842,97.600 252.405 C 97.380 251.968,97.200 251.338,97.200 251.005 C 97.200 250.672,97.020 250.400,96.800 250.400 C 96.580 250.400,96.400 250.051,96.400 249.624 C 96.400 249.197,96.220 248.736,96.000 248.600 C 95.780 248.464,95.600 248.003,95.600 247.576 C 95.600 247.149,95.420 246.800,95.200 246.800 C 94.980 246.800,94.800 246.566,94.800 246.280 C 94.800 245.544,93.859 243.607,93.500 243.603 C 93.335 243.601,93.200 243.060,93.200 242.400 C 93.200 241.740,93.020 241.200,92.800 241.200 C 92.580 241.200,92.400 240.840,92.400 240.400 C 92.400 239.960,92.243 239.600,92.050 239.600 C 91.758 239.600,91.508 238.837,91.167 236.898 C 91.138 236.734,90.774 235.932,90.357 235.116 C 89.941 234.300,89.600 233.355,89.600 233.016 C 89.600 232.677,89.420 232.400,89.200 232.400 C 88.980 232.400,88.800 232.128,88.800 231.796 C 88.800 231.039,87.149 227.447,86.719 227.267 C 86.543 227.193,86.400 226.709,86.400 226.190 C 86.400 225.672,86.220 225.136,86.000 225.000 C 85.780 224.864,85.600 224.403,85.600 223.976 C 85.600 223.549,85.420 223.200,85.200 223.200 C 84.980 223.200,84.800 222.840,84.800 222.400 C 84.800 221.960,84.620 221.600,84.400 221.600 C 84.180 221.600,84.000 221.060,84.000 220.400 C 84.000 219.740,83.820 219.200,83.600 219.200 C 83.380 219.200,83.200 218.840,83.200 218.400 C 83.200 217.960,83.064 217.600,82.898 217.600 C 82.731 217.600,82.356 217.060,82.064 216.400 C 81.457 215.029,80.440 214.851,79.452 215.943 M259.200 309.476 C 258.430 309.558,257.440 309.777,257.000 309.963 C 255.977 310.396,251.657 311.200,250.356 311.200 C 249.808 311.200,249.189 311.363,248.980 311.561 C 248.771 311.760,247.790 312.024,246.800 312.149 C 242.534 312.684,241.378 312.903,241.020 313.241 C 240.811 313.438,239.877 313.600,238.944 313.600 C 238.011 313.600,237.136 313.780,237.000 314.000 C 236.864 314.220,235.989 314.400,235.056 314.400 C 234.123 314.400,233.189 314.562,232.980 314.759 C 232.622 315.097,231.466 315.316,227.200 315.851 C 226.210 315.976,225.229 316.240,225.020 316.439 C 224.811 316.637,223.877 316.800,222.944 316.800 C 222.011 316.800,221.136 316.980,221.000 317.200 C 220.864 317.420,219.964 317.600,219.000 317.600 C 218.036 317.600,217.136 317.780,217.000 318.000 C 216.864 318.220,215.953 318.400,214.976 318.400 C 213.999 318.400,213.200 318.580,213.200 318.800 C 213.200 319.020,212.300 319.200,211.200 319.200 C 210.100 319.200,209.200 319.362,209.200 319.560 C 209.200 319.758,208.390 320.028,207.400 320.160 C 206.410 320.292,204.745 320.511,203.700 320.646 C 202.655 320.781,201.706 321.041,201.591 321.222 C 201.476 321.404,200.450 321.595,199.311 321.647 C 198.172 321.699,197.332 321.889,197.444 322.071 C 197.556 322.252,196.737 322.400,195.624 322.400 C 194.511 322.400,193.600 322.580,193.600 322.800 C 193.600 323.020,192.700 323.200,191.600 323.200 C 190.500 323.200,189.600 323.380,189.600 323.600 C 189.600 323.820,188.700 324.000,187.600 324.000 C 186.500 324.000,185.600 324.180,185.600 324.400 C 185.600 324.620,184.878 324.800,183.995 324.800 C 183.112 324.800,182.077 324.962,181.695 325.160 C 181.054 325.492,177.056 326.180,172.871 326.679 C 170.272 326.989,170.261 327.229,172.558 333.398 C 173.131 334.937,173.600 336.566,173.600 337.018 C 173.600 337.470,173.763 338.011,173.961 338.220 C 174.496 338.783,174.844 341.928,175.055 348.100 C 175.229 353.220,175.296 353.600,176.021 353.600 C 176.449 353.600,176.800 353.420,176.800 353.200 C 176.800 352.980,177.689 352.800,178.776 352.800 C 179.863 352.800,180.864 352.620,181.000 352.400 C 181.136 352.180,182.047 352.000,183.024 352.000 C 184.001 352.000,184.800 351.820,184.800 351.600 C 184.800 351.380,185.689 351.200,186.776 351.200 C 187.863 351.200,188.864 351.020,189.000 350.800 C 189.136 350.580,189.921 350.400,190.744 350.400 C 191.567 350.400,192.411 350.237,192.620 350.039 C 192.829 349.840,193.810 349.574,194.800 349.447 C 195.790 349.320,197.455 349.104,198.500 348.968 C 199.545 348.831,200.400 348.558,200.400 348.360 C 200.400 348.162,201.289 348.000,202.376 348.000 C 203.463 348.000,204.464 347.820,204.600 347.600 C 204.736 347.380,205.636 347.200,206.600 347.200 C 207.564 347.200,208.464 347.020,208.600 346.800 C 208.736 346.580,209.636 346.400,210.600 346.400 C 211.564 346.400,212.464 346.220,212.600 346.000 C 212.736 345.780,213.747 345.600,214.847 345.600 C 216.079 345.600,216.752 345.446,216.600 345.200 C 216.448 344.954,217.121 344.800,218.353 344.800 C 219.453 344.800,220.464 344.620,220.600 344.400 C 220.736 344.180,221.647 344.000,222.624 344.000 C 223.601 344.000,224.400 343.820,224.400 343.600 C 224.400 343.380,225.199 343.200,226.176 343.200 C 227.153 343.200,228.064 343.020,228.200 342.800 C 228.336 342.580,229.236 342.400,230.200 342.400 C 231.164 342.400,232.048 342.247,232.164 342.059 C 232.279 341.872,233.505 341.602,234.887 341.461 C 237.470 341.197,237.652 341.167,239.954 340.629 C 240.698 340.455,241.778 340.251,242.354 340.175 C 242.929 340.099,244.300 339.840,245.400 339.600 C 249.591 338.685,251.465 338.340,253.400 338.130 C 254.500 338.010,255.494 337.763,255.609 337.579 C 255.724 337.396,256.669 337.202,257.709 337.148 C 258.749 337.095,259.600 336.923,259.600 336.767 C 259.600 336.488,261.187 336.182,264.900 335.746 C 267.204 335.475,267.324 334.884,265.780 331.394 C 263.713 326.718,262.401 320.252,262.400 314.733 C 262.400 310.008,262.225 309.170,261.257 309.264 C 260.896 309.299,259.970 309.395,259.200 309.476 "
              stroke="none" fill="#b4b3bb" fill-rule="evenodd"/>
        <path id="path1"
              d="M150.000 50.000 L 150.000 62.400 162.400 62.400 L 174.800 62.400 174.800 50.000 L 174.800 37.600 162.400 37.600 L 150.000 37.600 150.000 50.000 M337.872 112.661 C 337.723 112.811,337.600 118.483,337.600 125.267 L 337.600 137.600 350.006 137.600 L 362.411 137.600 362.306 125.100 L 362.200 112.600 350.172 112.494 C 343.557 112.436,338.022 112.511,337.872 112.661 M37.872 162.661 C 37.723 162.811,37.600 168.483,37.600 175.267 L 37.600 187.600 50.006 187.600 L 62.411 187.600 62.306 175.100 L 62.200 162.600 50.172 162.494 C 43.557 162.436,38.022 162.511,37.872 162.661 M300.267 300.267 C 300.120 300.413,300.000 305.993,300.000 312.667 L 300.000 324.800 312.400 324.800 L 324.800 324.800 324.800 312.400 L 324.800 300.000 312.667 300.000 C 305.993 300.000,300.413 300.120,300.267 300.267 M112.581 338.105 C 112.475 338.382,112.435 343.917,112.494 350.405 L 112.600 362.200 125.100 362.306 L 137.600 362.411 137.600 350.006 L 137.600 337.600 125.187 337.600 C 115.566 337.600,112.731 337.713,112.581 338.105 "
              stroke="none" fill="#fcfcfc" fill-rule="evenodd"/>
        <path id="path2"
              d="M151.700 0.272 C 150.545 0.365,149.600 0.612,149.600 0.821 C 149.600 1.029,148.981 1.200,148.224 1.200 C 147.467 1.200,146.736 1.380,146.600 1.600 C 146.464 1.820,146.003 2.000,145.576 2.000 C 145.149 2.000,144.800 2.180,144.800 2.400 C 144.800 2.620,144.476 2.800,144.080 2.800 C 143.186 2.800,141.207 3.694,141.203 4.100 C 141.201 4.265,140.840 4.400,140.400 4.400 C 139.960 4.400,139.600 4.580,139.600 4.800 C 139.600 5.020,139.240 5.200,138.800 5.200 C 138.360 5.200,138.000 5.380,138.000 5.600 C 138.000 5.820,137.640 6.000,137.200 6.000 C 136.760 6.000,136.400 6.180,136.400 6.400 C 136.400 6.620,135.995 6.803,135.500 6.806 C 134.772 6.811,134.715 6.886,135.200 7.200 C 135.685 7.514,135.628 7.589,134.900 7.594 C 134.405 7.597,134.000 7.736,134.000 7.902 C 134.000 8.069,133.482 8.434,132.850 8.714 C 130.914 9.571,124.000 15.859,124.000 16.763 C 124.000 17.003,123.280 17.941,122.400 18.848 C 121.520 19.755,120.800 20.705,120.800 20.960 C 120.800 21.215,120.440 21.683,120.000 22.000 C 119.560 22.317,119.200 22.897,119.200 23.288 C 119.200 23.680,119.054 24.000,118.875 24.000 C 118.696 24.000,118.302 24.630,118.000 25.400 C 117.698 26.170,117.304 26.800,117.125 26.800 C 116.946 26.800,116.800 27.160,116.800 27.600 C 116.800 28.040,116.620 28.400,116.400 28.400 C 116.180 28.400,116.000 28.760,116.000 29.200 C 116.000 29.640,115.820 30.000,115.600 30.000 C 115.380 30.000,115.200 30.540,115.200 31.200 C 115.200 31.860,115.020 32.400,114.800 32.400 C 114.580 32.400,114.400 32.749,114.400 33.176 C 114.400 33.603,114.220 34.064,114.000 34.200 C 113.780 34.336,113.600 35.067,113.600 35.824 C 113.600 36.581,113.420 37.200,113.200 37.200 C 112.980 37.200,112.800 38.100,112.800 39.200 C 112.800 40.300,112.620 41.200,112.400 41.200 C 112.145 41.200,112.000 44.400,112.000 50.000 C 112.000 55.600,112.145 58.800,112.400 58.800 C 112.620 58.800,112.800 59.700,112.800 60.800 C 112.800 61.900,112.980 62.800,113.200 62.800 C 113.420 62.800,113.600 63.419,113.600 64.176 C 113.600 64.933,113.780 65.664,114.000 65.800 C 114.220 65.936,114.400 66.397,114.400 66.824 C 114.400 67.251,114.580 67.600,114.800 67.600 C 115.020 67.600,115.200 68.140,115.200 68.800 C 115.200 69.460,115.380 70.000,115.600 70.000 C 115.820 70.000,116.000 70.360,116.000 70.800 C 116.000 71.240,116.180 71.600,116.400 71.600 C 116.620 71.600,116.800 71.960,116.800 72.400 C 116.800 72.840,116.980 73.200,117.200 73.200 C 117.420 73.200,117.600 73.560,117.600 74.000 C 117.600 74.440,117.780 74.800,118.000 74.800 C 118.220 74.800,118.400 75.070,118.400 75.400 C 118.400 75.730,118.580 76.000,118.800 76.000 C 119.020 76.000,119.200 76.381,119.200 76.847 C 119.200 77.499,119.385 77.645,120.007 77.482 C 120.601 77.327,121.102 77.655,121.907 78.728 C 124.128 81.688,124.639 82.267,127.846 85.463 C 130.814 88.421,137.771 93.600,138.777 93.600 C 139.001 93.600,139.298 94.050,139.436 94.600 C 139.593 95.226,139.970 95.600,140.443 95.600 C 140.860 95.600,141.201 95.735,141.203 95.900 C 141.207 96.306,143.186 97.200,144.080 97.200 C 144.476 97.200,144.800 97.380,144.800 97.600 C 144.800 97.820,145.149 98.000,145.576 98.000 C 146.003 98.000,146.464 98.180,146.600 98.400 C 146.736 98.620,147.467 98.800,148.224 98.800 C 148.981 98.800,149.600 98.980,149.600 99.200 C 149.600 99.420,150.500 99.600,151.600 99.600 C 152.700 99.600,153.600 99.780,153.600 100.000 C 153.600 100.255,156.792 100.400,162.376 100.400 C 167.796 100.400,171.247 100.247,171.400 100.000 C 171.536 99.780,172.447 99.600,173.424 99.600 C 174.401 99.600,175.200 99.420,175.200 99.200 C 175.200 98.980,175.920 98.800,176.800 98.800 C 177.680 98.800,178.400 98.620,178.400 98.400 C 178.400 98.180,178.760 98.000,179.200 98.000 C 179.640 98.000,180.000 97.820,180.000 97.600 C 180.000 97.380,180.540 97.200,181.200 97.200 C 181.860 97.200,182.400 97.020,182.400 96.800 C 182.400 96.580,182.760 96.400,183.200 96.400 C 183.640 96.400,184.000 96.220,184.000 96.000 C 184.000 95.780,184.360 95.600,184.800 95.600 C 185.240 95.600,185.600 95.420,185.600 95.200 C 185.600 94.980,185.960 94.800,186.400 94.800 C 186.840 94.800,187.200 94.620,187.200 94.400 C 187.200 94.180,187.560 94.000,188.000 94.000 C 188.440 94.000,188.800 93.820,188.800 93.600 C 188.800 93.380,189.070 93.200,189.400 93.200 C 189.730 93.200,190.000 93.020,190.000 92.800 C 190.000 92.580,190.270 92.400,190.600 92.400 C 190.930 92.400,191.200 92.220,191.200 92.000 C 191.200 91.780,191.425 91.600,191.700 91.600 C 191.975 91.600,192.988 90.880,193.951 90.000 C 194.913 89.120,195.837 88.400,196.003 88.400 C 196.516 88.400,201.200 83.597,201.200 83.071 C 201.200 82.799,201.560 82.317,202.000 82.000 C 202.478 81.656,202.800 80.965,202.800 80.284 C 202.800 79.657,203.317 78.392,203.948 77.472 C 206.516 73.733,209.143 67.904,210.381 63.200 C 210.641 62.210,211.022 60.847,211.227 60.172 C 211.432 59.496,211.600 58.365,211.600 57.659 C 211.600 56.887,211.839 56.283,212.200 56.145 C 212.923 55.867,213.119 41.200,212.400 41.200 C 212.180 41.200,212.000 40.300,212.000 39.200 C 212.000 38.100,211.820 37.200,211.600 37.200 C 211.380 37.200,211.200 36.480,211.200 35.600 C 211.200 34.720,211.020 34.000,210.800 34.000 C 210.580 34.000,210.400 33.640,210.400 33.200 C 210.400 32.760,210.220 32.400,210.000 32.400 C 209.780 32.400,209.600 31.860,209.600 31.200 C 209.600 30.540,209.420 30.000,209.200 30.000 C 208.980 30.000,208.800 29.731,208.800 29.403 C 208.800 28.569,207.477 25.600,207.106 25.600 C 206.938 25.600,206.800 25.322,206.800 24.983 C 206.800 24.644,206.440 23.980,206.000 23.508 C 205.560 23.036,205.200 22.413,205.200 22.125 C 205.200 21.836,205.032 21.600,204.827 21.600 C 204.622 21.600,204.337 21.231,204.194 20.780 C 204.051 20.329,203.318 19.345,202.567 18.593 C 201.815 17.842,201.200 17.048,201.200 16.830 C 201.200 16.373,196.458 11.600,196.003 11.600 C 195.837 11.600,194.913 10.880,193.951 10.000 C 192.988 9.120,191.975 8.400,191.700 8.400 C 191.425 8.400,191.200 8.220,191.200 8.000 C 191.200 7.780,190.964 7.600,190.675 7.600 C 190.387 7.600,189.764 7.240,189.292 6.800 C 188.820 6.360,188.156 6.000,187.817 6.000 C 187.478 6.000,187.200 5.820,187.200 5.600 C 187.200 5.380,186.840 5.200,186.400 5.200 C 185.960 5.200,185.600 5.020,185.600 4.800 C 185.600 4.580,185.240 4.400,184.800 4.400 C 184.360 4.400,184.000 4.220,184.000 4.000 C 184.000 3.780,183.640 3.600,183.200 3.600 C 182.760 3.600,182.400 3.420,182.400 3.200 C 182.400 2.980,181.860 2.800,181.200 2.800 C 180.540 2.800,180.000 2.620,180.000 2.400 C 180.000 2.180,179.640 2.000,179.200 2.000 C 178.760 2.000,178.400 1.820,178.400 1.600 C 178.400 1.380,177.695 1.200,176.833 1.200 C 175.955 1.200,175.195 0.985,175.104 0.711 C 174.940 0.219,156.613 -0.125,151.700 0.272 M175.000 50.000 L 175.000 62.600 162.500 62.706 L 150.000 62.811 150.000 50.000 L 150.000 37.189 162.500 37.294 L 175.000 37.400 175.000 50.000 M341.185 74.948 C 341.076 75.058,340.269 75.249,339.393 75.374 C 338.517 75.499,337.080 75.772,336.200 75.982 C 335.320 76.192,334.105 76.483,333.500 76.629 C 332.895 76.774,332.400 77.052,332.400 77.247 C 332.400 77.441,331.961 77.600,331.424 77.600 C 330.887 77.600,330.336 77.780,330.200 78.000 C 330.064 78.220,329.603 78.400,329.176 78.400 C 328.749 78.400,328.399 78.535,328.399 78.700 C 328.398 78.865,327.408 79.450,326.200 80.000 C 324.992 80.550,324.002 81.135,324.001 81.300 C 324.001 81.465,323.764 81.600,323.475 81.600 C 323.187 81.600,322.564 81.960,322.092 82.400 C 321.620 82.840,321.068 83.200,320.865 83.200 C 320.662 83.200,319.755 83.920,318.848 84.800 C 317.941 85.680,317.043 86.400,316.853 86.400 C 315.600 86.400,309.600 93.518,309.600 95.004 C 309.600 95.583,309.094 96.808,308.475 97.728 C 307.167 99.671,304.351 105.168,303.622 107.200 C 303.345 107.970,302.969 108.960,302.785 109.400 C 302.367 110.401,301.313 114.851,300.967 117.075 C 300.823 117.997,300.457 118.846,300.153 118.963 C 299.472 119.224,299.322 134.000,300.000 134.000 C 300.220 134.000,300.400 134.799,300.400 135.776 C 300.400 136.753,300.580 137.664,300.800 137.800 C 301.020 137.936,301.200 138.667,301.200 139.424 C 301.200 140.181,301.380 140.800,301.600 140.800 C 301.820 140.800,302.000 141.160,302.000 141.600 C 302.000 142.040,302.180 142.400,302.400 142.400 C 302.620 142.400,302.800 142.940,302.800 143.600 C 302.800 144.260,302.980 144.800,303.200 144.800 C 303.420 144.800,303.600 145.160,303.600 145.600 C 303.600 146.040,303.780 146.400,304.000 146.400 C 304.220 146.400,304.400 146.760,304.400 147.200 C 304.400 147.640,304.580 148.000,304.800 148.000 C 305.020 148.000,305.200 148.360,305.200 148.800 C 305.200 149.240,305.380 149.600,305.600 149.600 C 305.820 149.600,306.000 149.960,306.000 150.400 C 306.000 150.840,306.180 151.200,306.400 151.200 C 306.620 151.200,306.800 151.436,306.800 151.725 C 306.800 152.013,307.115 152.607,307.500 153.045 C 307.885 153.483,308.454 154.282,308.764 154.820 C 310.084 157.115,316.046 163.600,316.834 163.600 C 317.035 163.600,317.941 164.320,318.848 165.200 C 319.755 166.080,320.662 166.800,320.865 166.800 C 321.068 166.800,321.620 167.160,322.092 167.600 C 322.564 168.040,323.187 168.400,323.475 168.400 C 323.764 168.400,324.000 168.536,324.000 168.702 C 324.000 169.201,326.500 170.164,328.000 170.244 C 328.770 170.285,331.290 170.953,333.600 171.729 C 338.957 173.529,340.238 173.846,344.448 174.407 C 349.278 175.052,360.642 175.119,362.400 174.514 C 363.170 174.249,364.655 173.805,365.700 173.529 C 366.745 173.252,367.600 172.885,367.600 172.713 C 367.600 172.541,368.039 172.400,368.576 172.400 C 369.113 172.400,369.664 172.220,369.800 172.000 C 369.936 171.780,370.397 171.600,370.824 171.600 C 371.251 171.600,371.601 171.465,371.601 171.300 C 371.602 171.135,372.592 170.550,373.800 170.000 C 375.008 169.450,375.998 168.865,375.999 168.700 C 375.999 168.535,376.236 168.400,376.525 168.400 C 376.813 168.400,377.436 168.040,377.908 167.600 C 378.380 167.160,378.932 166.800,379.135 166.800 C 379.338 166.800,380.245 166.080,381.152 165.200 C 382.059 164.320,382.965 163.600,383.166 163.600 C 383.993 163.600,390.548 156.470,391.395 154.649 C 391.612 154.182,392.107 153.451,392.495 153.025 C 392.883 152.598,393.200 152.013,393.200 151.725 C 393.200 151.436,393.380 151.200,393.600 151.200 C 393.820 151.200,394.000 150.840,394.000 150.400 C 394.000 149.960,394.180 149.600,394.400 149.600 C 394.620 149.600,394.800 149.240,394.800 148.800 C 394.800 148.360,394.980 148.000,395.200 148.000 C 395.420 148.000,395.600 147.640,395.600 147.200 C 395.600 146.760,395.780 146.400,396.000 146.400 C 396.220 146.400,396.400 146.040,396.400 145.600 C 396.400 145.160,396.580 144.800,396.800 144.800 C 397.020 144.800,397.200 144.260,397.200 143.600 C 397.200 142.940,397.380 142.400,397.600 142.400 C 397.820 142.400,398.000 142.040,398.000 141.600 C 398.000 141.160,398.180 140.800,398.400 140.800 C 398.620 140.800,398.800 140.206,398.800 139.480 C 398.800 138.754,399.025 137.935,399.300 137.660 C 399.678 137.282,399.800 134.195,399.800 125.000 C 399.800 115.805,399.678 112.718,399.300 112.340 C 399.025 112.065,398.800 111.246,398.800 110.520 C 398.800 109.794,398.620 109.200,398.400 109.200 C 398.180 109.200,398.000 108.840,398.000 108.400 C 398.000 107.960,397.820 107.600,397.600 107.600 C 397.380 107.600,397.200 107.060,397.200 106.400 C 397.200 105.740,397.020 105.200,396.800 105.200 C 396.580 105.200,396.400 104.840,396.400 104.400 C 396.400 103.960,396.220 103.600,396.000 103.600 C 395.780 103.600,395.600 103.240,395.600 102.800 C 395.600 102.360,395.420 102.000,395.200 102.000 C 394.980 102.000,394.800 101.640,394.800 101.200 C 394.800 100.760,394.620 100.400,394.400 100.400 C 394.180 100.400,394.000 100.040,394.000 99.600 C 394.000 99.160,393.820 98.800,393.600 98.800 C 393.380 98.800,393.200 98.564,393.200 98.275 C 393.200 97.987,392.885 97.393,392.500 96.955 C 392.115 96.517,391.546 95.718,391.236 95.180 C 389.916 92.885,383.954 86.400,383.166 86.400 C 382.965 86.400,382.059 85.680,381.152 84.800 C 380.245 83.920,379.338 83.200,379.135 83.200 C 378.932 83.200,378.380 82.840,377.908 82.400 C 377.436 81.960,376.813 81.600,376.525 81.600 C 376.236 81.600,375.999 81.465,375.999 81.300 C 375.998 81.135,375.008 80.550,373.800 80.000 C 372.592 79.450,371.602 78.865,371.601 78.700 C 371.601 78.535,371.251 78.400,370.824 78.400 C 370.397 78.400,369.936 78.220,369.800 78.000 C 369.664 77.780,369.113 77.600,368.576 77.600 C 368.039 77.600,367.600 77.441,367.600 77.247 C 367.600 77.052,367.105 76.775,366.500 76.630 C 364.938 76.255,361.976 75.566,360.800 75.303 C 359.502 75.014,341.447 74.686,341.185 74.948 M362.800 125.000 L 362.800 137.600 350.000 137.600 L 337.200 137.600 337.200 125.267 C 337.200 118.483,337.320 112.813,337.467 112.667 C 337.613 112.520,343.373 112.400,350.267 112.400 L 362.800 112.400 362.800 125.000 M41.185 124.948 C 41.076 125.058,40.269 125.249,39.393 125.374 C 38.517 125.499,37.080 125.772,36.200 125.982 C 35.320 126.192,34.105 126.483,33.500 126.629 C 32.895 126.774,32.400 127.052,32.400 127.247 C 32.400 127.441,31.961 127.600,31.424 127.600 C 30.887 127.600,30.336 127.780,30.200 128.000 C 30.064 128.220,29.603 128.400,29.176 128.400 C 28.749 128.400,28.399 128.535,28.399 128.700 C 28.398 128.865,27.408 129.450,26.200 130.000 C 24.992 130.550,24.002 131.135,24.001 131.300 C 24.001 131.465,23.764 131.600,23.475 131.600 C 23.187 131.600,22.564 131.960,22.092 132.400 C 21.620 132.840,21.068 133.200,20.865 133.200 C 20.662 133.200,19.755 133.920,18.848 134.800 C 17.941 135.680,17.035 136.400,16.834 136.400 C 16.046 136.400,10.084 142.885,8.764 145.180 C 8.454 145.718,7.885 146.517,7.500 146.955 C 7.115 147.393,6.800 147.987,6.800 148.275 C 6.800 148.564,6.620 148.800,6.400 148.800 C 6.180 148.800,6.000 149.160,6.000 149.600 C 6.000 150.040,5.820 150.400,5.600 150.400 C 5.380 150.400,5.200 150.760,5.200 151.200 C 5.200 151.640,5.020 152.000,4.800 152.000 C 4.580 152.000,4.400 152.360,4.400 152.800 C 4.400 153.240,4.220 153.600,4.000 153.600 C 3.780 153.600,3.600 153.960,3.600 154.400 C 3.600 154.840,3.420 155.200,3.200 155.200 C 2.980 155.200,2.800 155.740,2.800 156.400 C 2.800 157.060,2.620 157.600,2.400 157.600 C 2.180 157.600,2.000 157.960,2.000 158.400 C 2.000 158.840,1.820 159.200,1.600 159.200 C 1.380 159.200,1.200 159.794,1.200 160.520 C 1.200 161.246,0.975 162.065,0.700 162.340 C -0.021 163.061,-0.021 186.939,0.700 187.660 C 0.975 187.935,1.200 188.754,1.200 189.480 C 1.200 190.206,1.380 190.800,1.600 190.800 C 1.820 190.800,2.000 191.160,2.000 191.600 C 2.000 192.040,2.180 192.400,2.400 192.400 C 2.620 192.400,2.800 192.940,2.800 193.600 C 2.800 194.260,2.980 194.800,3.200 194.800 C 3.420 194.800,3.600 195.160,3.600 195.600 C 3.600 196.040,3.780 196.400,4.000 196.400 C 4.220 196.400,4.400 196.760,4.400 197.200 C 4.400 197.640,4.580 198.000,4.800 198.000 C 5.020 198.000,5.200 198.360,5.200 198.800 C 5.200 199.240,5.380 199.600,5.600 199.600 C 5.820 199.600,6.000 199.960,6.000 200.400 C 6.000 200.840,6.180 201.200,6.400 201.200 C 6.620 201.200,6.800 201.436,6.800 201.725 C 6.800 202.013,7.115 202.607,7.500 203.045 C 7.885 203.483,8.454 204.282,8.764 204.820 C 10.084 207.115,16.046 213.600,16.834 213.600 C 17.035 213.600,17.941 214.320,18.848 215.200 C 19.755 216.080,20.662 216.800,20.865 216.800 C 21.068 216.800,21.620 217.160,22.092 217.600 C 22.564 218.040,23.187 218.400,23.475 218.400 C 23.764 218.400,24.001 218.535,24.001 218.700 C 24.002 218.865,24.992 219.450,26.200 220.000 C 27.408 220.550,28.398 221.135,28.399 221.300 C 28.399 221.465,28.749 221.600,29.176 221.600 C 29.603 221.600,30.064 221.780,30.200 222.000 C 30.336 222.220,30.887 222.400,31.424 222.400 C 31.961 222.400,32.400 222.541,32.400 222.713 C 32.400 222.885,33.255 223.251,34.300 223.526 C 35.345 223.801,36.740 224.223,37.400 224.463 C 39.583 225.256,56.847 225.417,57.277 224.648 C 57.477 224.292,58.023 224.000,58.491 224.000 C 58.960 224.000,59.896 223.835,60.572 223.634 C 61.247 223.433,63.150 222.874,64.800 222.392 C 68.756 221.237,73.884 218.833,77.623 216.382 C 79.286 215.292,81.041 214.400,81.523 214.400 C 82.005 214.400,82.400 214.220,82.400 214.000 C 82.400 213.780,82.654 213.600,82.965 213.600 C 83.956 213.600,90.428 206.728,91.395 204.649 C 91.612 204.182,92.107 203.451,92.495 203.025 C 92.883 202.598,93.200 202.013,93.200 201.725 C 93.200 201.436,93.380 201.200,93.600 201.200 C 93.820 201.200,94.000 200.840,94.000 200.400 C 94.000 199.960,94.180 199.600,94.400 199.600 C 94.620 199.600,94.800 199.240,94.800 198.800 C 94.800 198.360,94.980 198.000,95.200 198.000 C 95.420 198.000,95.600 197.640,95.600 197.200 C 95.600 196.760,95.780 196.400,96.000 196.400 C 96.220 196.400,96.400 196.040,96.400 195.600 C 96.400 195.160,96.580 194.800,96.800 194.800 C 97.020 194.800,97.200 194.260,97.200 193.600 C 97.200 192.940,97.380 192.400,97.600 192.400 C 97.820 192.400,98.000 192.040,98.000 191.600 C 98.000 191.160,98.180 190.800,98.400 190.800 C 98.620 190.800,98.800 190.181,98.800 189.424 C 98.800 188.667,98.980 187.936,99.200 187.800 C 99.420 187.664,99.600 186.753,99.600 185.776 C 99.600 184.799,99.780 184.000,100.000 184.000 C 100.255 184.000,100.400 180.733,100.400 175.000 C 100.400 169.267,100.255 166.000,100.000 166.000 C 99.780 166.000,99.600 165.201,99.600 164.224 C 99.600 163.247,99.420 162.336,99.200 162.200 C 98.980 162.064,98.800 161.333,98.800 160.576 C 98.800 159.819,98.620 159.200,98.400 159.200 C 98.180 159.200,98.000 158.840,98.000 158.400 C 98.000 157.960,97.820 157.600,97.600 157.600 C 97.380 157.600,97.200 157.060,97.200 156.400 C 97.200 155.740,97.020 155.200,96.800 155.200 C 96.580 155.200,96.400 154.840,96.400 154.400 C 96.400 153.960,96.220 153.600,96.000 153.600 C 95.780 153.600,95.600 153.240,95.600 152.800 C 95.600 152.360,95.420 152.000,95.200 152.000 C 94.980 152.000,94.800 151.640,94.800 151.200 C 94.800 150.760,94.620 150.400,94.400 150.400 C 94.180 150.400,94.000 150.040,94.000 149.600 C 94.000 149.160,93.841 148.800,93.647 148.800 C 93.452 148.800,93.199 148.439,93.084 147.998 C 92.953 147.499,92.654 147.281,92.291 147.420 C 91.906 147.568,90.987 146.720,89.585 144.922 C 85.723 139.970,80.618 135.421,75.498 132.371 C 74.128 131.555,73.099 130.636,72.955 130.100 C 72.822 129.605,72.463 129.200,72.157 129.200 C 71.850 129.200,71.600 129.020,71.600 128.800 C 71.600 128.580,71.251 128.400,70.824 128.400 C 70.397 128.400,69.936 128.220,69.800 128.000 C 69.664 127.780,69.113 127.600,68.576 127.600 C 68.039 127.600,67.600 127.441,67.600 127.247 C 67.600 127.052,67.105 126.775,66.500 126.630 C 64.938 126.255,61.976 125.566,60.800 125.303 C 59.502 125.014,41.447 124.686,41.185 124.948 M62.800 175.000 L 62.800 187.600 50.000 187.600 L 37.200 187.600 37.200 175.267 C 37.200 168.483,37.320 162.813,37.467 162.667 C 37.613 162.520,43.373 162.400,50.267 162.400 L 62.800 162.400 62.800 175.000 M303.600 262.461 C 303.600 262.647,302.801 262.800,301.824 262.800 C 300.847 262.800,299.936 262.980,299.800 263.200 C 299.664 263.420,298.944 263.600,298.200 263.600 C 297.456 263.600,296.736 263.780,296.600 264.000 C 296.464 264.220,296.003 264.400,295.576 264.400 C 295.149 264.400,294.800 264.580,294.800 264.800 C 294.800 265.020,294.476 265.200,294.080 265.200 C 293.186 265.200,291.207 266.094,291.203 266.500 C 291.201 266.665,290.840 266.800,290.400 266.800 C 289.960 266.800,289.600 266.980,289.600 267.200 C 289.600 267.420,289.240 267.600,288.800 267.600 C 288.360 267.600,288.000 267.780,288.000 268.000 C 288.000 268.220,287.722 268.400,287.383 268.400 C 287.044 268.400,286.380 268.760,285.908 269.200 C 285.436 269.640,284.813 270.000,284.525 270.000 C 284.236 270.000,284.000 270.180,284.000 270.400 C 284.000 270.620,283.752 270.800,283.448 270.800 C 283.145 270.800,282.155 271.520,281.248 272.400 C 280.341 273.280,279.419 274.000,279.200 274.000 C 278.980 274.000,277.720 275.080,276.400 276.400 C 275.080 277.720,274.000 278.980,274.000 279.200 C 274.000 279.419,273.280 280.341,272.400 281.248 C 271.520 282.155,270.800 283.145,270.800 283.448 C 270.800 283.752,270.620 284.000,270.400 284.000 C 270.180 284.000,270.000 284.236,270.000 284.525 C 270.000 284.813,269.640 285.436,269.200 285.908 C 268.760 286.380,268.400 287.044,268.400 287.383 C 268.400 287.722,268.220 288.000,268.000 288.000 C 267.780 288.000,267.600 288.360,267.600 288.800 C 267.600 289.240,267.420 289.600,267.200 289.600 C 266.980 289.600,266.800 289.960,266.800 290.400 C 266.800 290.840,266.665 291.201,266.500 291.203 C 266.094 291.207,265.200 293.186,265.200 294.080 C 265.200 294.476,265.020 294.800,264.800 294.800 C 264.580 294.800,264.400 295.149,264.400 295.576 C 264.400 296.003,264.220 296.464,264.000 296.600 C 263.780 296.736,263.600 297.456,263.600 298.200 C 263.600 298.944,263.420 299.664,263.200 299.800 C 262.980 299.936,262.800 300.847,262.800 301.824 C 262.800 302.801,262.647 303.600,262.461 303.600 C 261.959 303.600,261.882 309.080,262.380 309.388 C 262.611 309.530,262.800 310.956,262.800 312.558 C 262.800 317.955,264.088 324.640,266.256 330.499 C 267.436 333.685,267.608 334.508,267.201 334.999 C 266.857 335.414,266.841 335.600,267.151 335.600 C 267.398 335.600,267.600 335.960,267.600 336.400 C 267.600 336.840,267.780 337.200,268.000 337.200 C 268.220 337.200,268.400 337.560,268.400 338.000 C 268.400 338.440,268.580 338.800,268.800 338.800 C 269.020 338.800,269.200 339.070,269.200 339.400 C 269.200 339.730,269.380 340.000,269.600 340.000 C 269.820 340.000,270.000 340.270,270.000 340.600 C 270.000 340.930,270.180 341.200,270.400 341.200 C 270.620 341.200,270.800 341.394,270.800 341.631 C 270.800 341.869,271.520 342.754,272.400 343.600 C 273.280 344.446,274.000 345.346,274.000 345.602 C 274.000 346.116,278.876 351.200,279.369 351.200 C 279.540 351.200,280.183 351.740,280.800 352.400 C 281.417 353.060,282.085 353.600,282.285 353.600 C 282.485 353.600,282.998 353.924,283.425 354.320 C 283.851 354.716,285.010 355.481,286.000 356.020 C 286.990 356.559,287.860 357.135,287.933 357.300 C 288.007 357.465,288.412 357.600,288.833 357.600 C 289.255 357.600,289.600 357.780,289.600 358.000 C 289.600 358.220,289.915 358.401,290.300 358.402 C 290.685 358.404,291.516 358.674,292.146 359.002 C 292.776 359.331,293.631 359.600,294.046 359.600 C 294.461 359.600,294.800 359.780,294.800 360.000 C 294.800 360.220,295.149 360.400,295.576 360.400 C 296.003 360.400,296.464 360.580,296.600 360.800 C 296.736 361.020,297.467 361.200,298.224 361.200 C 298.981 361.200,299.600 361.380,299.600 361.600 C 299.600 361.820,300.500 362.000,301.600 362.000 C 302.700 362.000,303.600 362.180,303.600 362.400 C 303.600 362.655,306.867 362.800,312.600 362.800 C 318.333 362.800,321.600 362.655,321.600 362.400 C 321.600 362.180,322.410 362.000,323.400 362.000 C 324.390 362.000,325.200 361.820,325.200 361.600 C 325.200 361.380,325.920 361.200,326.800 361.200 C 327.680 361.200,328.400 361.020,328.400 360.800 C 328.400 360.580,328.760 360.400,329.200 360.400 C 329.640 360.400,330.000 360.220,330.000 360.000 C 330.000 359.780,330.540 359.600,331.200 359.600 C 331.860 359.600,332.400 359.420,332.400 359.200 C 332.400 358.980,332.697 358.800,333.060 358.800 C 334.733 358.800,341.846 354.597,344.060 352.300 C 344.644 351.695,345.309 351.200,345.538 351.200 C 346.082 351.200,351.200 346.082,351.200 345.538 C 351.200 345.309,351.695 344.644,352.300 344.060 C 354.597 341.846,358.800 334.733,358.800 333.060 C 358.800 332.697,358.980 332.400,359.200 332.400 C 359.420 332.400,359.600 331.860,359.600 331.200 C 359.600 330.540,359.780 330.000,360.000 330.000 C 360.220 330.000,360.400 329.640,360.400 329.200 C 360.400 328.760,360.580 328.400,360.800 328.400 C 361.020 328.400,361.200 327.680,361.200 326.800 C 361.200 325.920,361.380 325.200,361.600 325.200 C 361.820 325.200,362.000 324.390,362.000 323.400 C 362.000 322.410,362.180 321.600,362.400 321.600 C 362.655 321.600,362.800 318.333,362.800 312.600 C 362.800 306.867,362.655 303.600,362.400 303.600 C 362.180 303.600,362.000 302.700,362.000 301.600 C 362.000 300.500,361.820 299.600,361.600 299.600 C 361.380 299.600,361.200 298.981,361.200 298.224 C 361.200 297.467,361.020 296.736,360.800 296.600 C 360.580 296.464,360.400 296.003,360.400 295.576 C 360.400 295.149,360.220 294.800,360.000 294.800 C 359.780 294.800,359.600 294.461,359.600 294.046 C 359.600 293.631,359.331 292.776,359.002 292.146 C 358.674 291.516,358.404 290.685,358.402 290.300 C 358.401 289.915,358.220 289.600,358.000 289.600 C 357.780 289.600,357.600 289.255,357.600 288.833 C 357.600 288.412,357.465 288.007,357.300 287.933 C 357.135 287.860,356.559 286.990,356.020 286.000 C 355.481 285.010,354.716 283.851,354.320 283.425 C 353.924 282.998,353.600 282.485,353.600 282.285 C 353.600 282.085,353.060 281.417,352.400 280.800 C 351.740 280.183,351.200 279.540,351.200 279.369 C 351.200 278.876,346.116 274.000,345.602 274.000 C 345.346 274.000,344.446 273.280,343.600 272.400 C 342.754 271.520,341.869 270.800,341.631 270.800 C 341.394 270.800,341.200 270.620,341.200 270.400 C 341.200 270.180,340.930 270.000,340.600 270.000 C 340.270 270.000,340.000 269.820,340.000 269.600 C 340.000 269.380,339.730 269.200,339.400 269.200 C 339.070 269.200,338.800 269.020,338.800 268.800 C 338.800 268.580,338.455 268.400,338.033 268.400 C 337.612 268.400,337.206 268.217,337.131 267.994 C 337.057 267.770,336.097 267.514,334.998 267.425 C 333.899 267.336,331.830 266.791,330.400 266.213 C 325.678 264.304,317.814 262.800,312.558 262.800 C 310.956 262.800,309.530 262.611,309.388 262.380 C 309.080 261.882,303.600 261.959,303.600 262.461 M118.000 300.009 C 118.000 300.569,116.758 301.022,113.000 301.833 C 111.240 302.212,109.629 302.675,109.420 302.861 C 109.211 303.048,108.760 303.200,108.417 303.200 C 106.950 303.200,96.086 309.059,95.667 310.077 C 95.593 310.255,94.991 310.400,94.328 310.400 C 92.629 310.400,86.400 315.470,86.400 316.853 C 86.400 317.043,85.680 317.941,84.800 318.848 C 83.920 319.755,83.200 320.662,83.200 320.865 C 83.200 321.068,82.840 321.620,82.400 322.092 C 81.960 322.564,81.600 323.187,81.600 323.475 C 81.600 323.764,81.465 324.001,81.300 324.001 C 81.135 324.002,80.550 324.992,80.000 326.200 C 79.450 327.408,78.865 328.398,78.700 328.399 C 78.535 328.399,78.400 328.749,78.400 329.176 C 78.400 329.603,78.220 330.064,78.000 330.200 C 77.780 330.336,77.600 330.887,77.600 331.424 C 77.600 331.961,77.441 332.400,77.247 332.400 C 77.052 332.400,76.774 332.895,76.629 333.500 C 75.018 340.197,75.000 340.382,75.000 350.000 C 75.000 359.618,75.018 359.803,76.629 366.500 C 76.774 367.105,77.052 367.600,77.247 367.600 C 77.441 367.600,77.600 368.039,77.600 368.576 C 77.600 369.113,77.780 369.664,78.000 369.800 C 78.220 369.936,78.400 370.397,78.400 370.824 C 78.400 371.251,78.535 371.601,78.700 371.601 C 78.865 371.602,79.450 372.592,80.000 373.800 C 80.550 375.008,81.135 375.998,81.300 375.999 C 81.465 375.999,81.600 376.236,81.600 376.525 C 81.600 376.813,81.960 377.436,82.400 377.908 C 82.840 378.380,83.200 378.932,83.200 379.135 C 83.200 379.338,83.920 380.245,84.800 381.152 C 85.680 382.059,86.400 382.965,86.400 383.166 C 86.400 383.954,92.885 389.916,95.180 391.236 C 95.718 391.546,96.517 392.115,96.955 392.500 C 97.393 392.885,97.987 393.200,98.275 393.200 C 98.564 393.200,98.800 393.380,98.800 393.600 C 98.800 393.820,99.160 394.000,99.600 394.000 C 100.040 394.000,100.400 394.180,100.400 394.400 C 100.400 394.620,100.760 394.800,101.200 394.800 C 101.640 394.800,102.000 394.980,102.000 395.200 C 102.000 395.420,102.360 395.600,102.800 395.600 C 103.240 395.600,103.600 395.780,103.600 396.000 C 103.600 396.220,103.960 396.400,104.400 396.400 C 104.840 396.400,105.200 396.580,105.200 396.800 C 105.200 397.020,105.740 397.200,106.400 397.200 C 107.060 397.200,107.600 397.380,107.600 397.600 C 107.600 397.820,107.960 398.000,108.400 398.000 C 108.840 398.000,109.200 398.180,109.200 398.400 C 109.200 398.620,109.794 398.800,110.520 398.800 C 111.246 398.800,112.065 399.025,112.340 399.300 C 112.718 399.678,115.805 399.800,125.000 399.800 C 134.195 399.800,137.282 399.678,137.660 399.300 C 137.935 399.025,138.754 398.800,139.480 398.800 C 140.206 398.800,140.800 398.620,140.800 398.400 C 140.800 398.180,141.160 398.000,141.600 398.000 C 142.040 398.000,142.400 397.820,142.400 397.600 C 142.400 397.380,142.940 397.200,143.600 397.200 C 144.260 397.200,144.800 397.020,144.800 396.800 C 144.800 396.580,145.160 396.400,145.600 396.400 C 146.040 396.400,146.400 396.220,146.400 396.000 C 146.400 395.780,146.760 395.600,147.200 395.600 C 147.640 395.600,148.000 395.420,148.000 395.200 C 148.000 394.980,148.360 394.800,148.800 394.800 C 149.240 394.800,149.600 394.620,149.600 394.400 C 149.600 394.180,149.960 394.000,150.400 394.000 C 150.840 394.000,151.200 393.820,151.200 393.600 C 151.200 393.380,151.436 393.200,151.725 393.200 C 152.013 393.200,152.598 392.883,153.025 392.495 C 153.451 392.107,154.182 391.612,154.649 391.395 C 156.470 390.548,163.600 383.993,163.600 383.166 C 163.600 382.965,164.320 382.059,165.200 381.152 C 166.080 380.245,166.800 379.338,166.800 379.135 C 166.800 378.932,167.160 378.380,167.600 377.908 C 168.040 377.436,168.400 376.813,168.400 376.525 C 168.400 376.236,168.535 375.999,168.700 375.999 C 168.865 375.998,169.450 375.008,170.000 373.800 C 170.550 372.592,171.135 371.602,171.300 371.601 C 171.465 371.601,171.600 371.251,171.600 370.824 C 171.600 370.397,171.780 369.936,172.000 369.800 C 172.220 369.664,172.400 369.113,172.400 368.576 C 172.400 368.039,172.541 367.600,172.713 367.600 C 172.885 367.600,173.252 366.745,173.529 365.700 C 173.805 364.655,174.249 363.170,174.514 362.400 C 175.119 360.642,175.052 349.278,174.407 344.448 C 173.846 340.238,173.529 338.957,171.729 333.600 C 170.953 331.290,170.285 328.770,170.244 328.000 C 170.164 326.500,169.201 324.000,168.702 324.000 C 168.536 324.000,168.400 323.764,168.400 323.475 C 168.400 323.187,168.040 322.564,167.600 322.092 C 167.160 321.620,166.800 321.068,166.800 320.865 C 166.800 320.662,166.080 319.755,165.200 318.848 C 164.320 317.941,163.600 317.035,163.600 316.834 C 163.600 316.046,157.115 310.084,154.820 308.764 C 154.282 308.454,153.483 307.885,153.045 307.500 C 152.607 307.115,152.013 306.800,151.725 306.800 C 151.436 306.800,151.200 306.620,151.200 306.400 C 151.200 306.180,150.840 306.000,150.400 306.000 C 149.960 306.000,149.600 305.820,149.600 305.600 C 149.600 305.380,149.240 305.200,148.800 305.200 C 148.360 305.200,148.000 305.020,148.000 304.800 C 148.000 304.580,147.640 304.400,147.200 304.400 C 146.760 304.400,146.400 304.220,146.400 304.000 C 146.400 303.780,146.040 303.600,145.600 303.600 C 145.160 303.600,144.800 303.420,144.800 303.200 C 144.800 302.980,144.260 302.800,143.600 302.800 C 142.940 302.800,142.400 302.620,142.400 302.400 C 142.400 302.180,142.040 302.000,141.600 302.000 C 141.160 302.000,140.800 301.820,140.800 301.600 C 140.800 301.380,140.181 301.200,139.424 301.200 C 138.667 301.200,137.936 301.020,137.800 300.800 C 137.664 300.580,136.753 300.400,135.776 300.400 C 134.799 300.400,134.000 300.220,134.000 300.000 C 134.000 299.747,131.067 299.600,126.000 299.600 C 120.821 299.600,118.000 299.744,118.000 300.009 M325.200 312.600 L 325.200 325.200 312.600 325.200 L 300.000 325.200 300.000 312.600 L 300.000 300.000 312.600 300.000 L 325.200 300.000 325.200 312.600 M137.600 350.000 L 137.600 362.800 125.000 362.800 L 112.400 362.800 112.400 350.267 C 112.400 343.373,112.520 337.613,112.667 337.467 C 112.813 337.320,118.483 337.200,125.267 337.200 L 137.600 337.200 137.600 350.000 "
              stroke="none" fill="#e46c54" fill-rule="evenodd"/>
        <path id="path3"
              d="M162.400 37.497 L 174.800 37.611 174.800 50.000 L 174.800 62.389 162.400 62.503 L 150.000 62.617 162.500 62.609 L 175.000 62.600 175.000 50.000 L 175.000 37.400 162.500 37.391 L 150.000 37.383 162.400 37.497 M211.867 56.267 C 211.720 56.413,211.600 57.076,211.600 57.738 C 211.600 58.401,211.432 59.496,211.227 60.172 C 211.022 60.847,210.641 62.210,210.381 63.200 C 209.893 65.053,209.347 66.799,208.816 68.200 C 208.155 69.945,205.031 75.895,203.948 77.472 C 203.317 78.392,202.808 79.562,202.818 80.072 C 202.831 80.802,202.943 80.698,203.343 79.581 C 203.622 78.801,204.390 77.361,205.050 76.381 C 207.843 72.234,210.670 65.128,211.646 59.800 C 211.888 58.480,212.248 57.085,212.446 56.700 C 212.796 56.021,212.405 55.728,211.867 56.267 M120.241 77.534 C 120.082 77.790,120.136 78.000,120.359 78.000 C 120.583 78.000,121.744 79.225,122.939 80.723 C 125.403 83.812,129.731 88.089,132.400 90.074 C 135.448 92.340,139.564 94.772,139.333 94.171 C 139.213 93.857,138.947 93.600,138.742 93.600 C 136.943 93.600,126.430 84.733,123.369 80.634 C 121.111 77.610,120.542 77.046,120.241 77.534 M309.246 95.328 C 309.221 95.728,308.658 96.843,307.996 97.805 C 306.583 99.859,303.200 106.545,303.200 107.284 C 303.200 107.565,304.125 105.906,305.255 103.597 C 306.385 101.289,307.837 98.630,308.482 97.689 C 309.127 96.747,309.573 95.667,309.474 95.289 C 309.311 94.670,309.288 94.674,309.246 95.328 M301.800 111.200 C 301.648 111.891,301.614 112.547,301.724 112.657 C 301.834 112.767,302.048 112.291,302.200 111.600 C 302.352 110.909,302.386 110.253,302.276 110.143 C 302.166 110.033,301.952 110.509,301.800 111.200 M362.578 125.000 C 362.579 132.040,362.633 134.864,362.699 131.275 C 362.766 127.686,362.766 121.926,362.699 118.475 C 362.633 115.024,362.578 117.960,362.578 125.000 M337.378 125.200 C 337.378 132.130,337.433 134.965,337.499 131.500 C 337.566 128.035,337.566 122.365,337.499 118.900 C 337.433 115.435,337.378 118.270,337.378 125.200 M301.076 114.010 C 300.930 114.555,300.827 115.450,300.846 116.000 C 300.871 116.718,300.984 116.557,301.249 115.427 C 301.655 113.695,301.500 112.425,301.076 114.010 M300.153 118.170 C 299.792 118.949,299.812 119.094,300.253 118.924 C 300.554 118.809,300.800 118.374,300.800 117.957 C 300.800 116.970,300.693 117.005,300.153 118.170 M73.053 130.563 C 73.151 130.803,74.260 131.617,75.516 132.371 C 80.653 135.455,85.739 139.990,89.568 144.900 C 90.726 146.385,91.871 147.600,92.113 147.600 C 92.355 147.600,92.280 147.375,91.946 147.100 C 91.613 146.825,90.416 145.414,89.286 143.964 C 87.071 141.120,82.855 137.002,79.986 134.879 C 77.027 132.690,72.861 130.097,73.053 130.563 M62.578 175.000 C 62.579 182.040,62.633 184.864,62.699 181.275 C 62.766 177.686,62.766 171.926,62.699 168.475 C 62.633 165.024,62.578 167.960,62.578 175.000 M37.378 175.200 C 37.378 182.130,37.433 184.965,37.499 181.500 C 37.566 178.035,37.566 172.365,37.499 168.900 C 37.433 165.435,37.378 168.270,37.378 175.200 M331.068 171.336 C 336.820 173.758,344.314 175.250,350.165 175.139 L 353.400 175.077 349.000 174.756 C 341.685 174.221,337.545 173.388,332.200 171.375 C 328.007 169.795,327.356 169.773,331.068 171.336 M77.887 216.168 C 75.326 217.941,75.028 218.330,77.109 217.184 C 78.050 216.666,79.113 215.918,79.471 215.521 C 80.373 214.525,80.099 214.637,77.887 216.168 M72.600 219.280 C 71.280 219.963,68.764 221.048,67.009 221.690 C 64.083 222.761,62.712 223.136,58.833 223.925 C 58.081 224.078,57.419 224.432,57.363 224.711 C 57.306 224.991,57.352 225.036,57.463 224.810 C 57.575 224.584,58.134 224.400,58.705 224.400 C 59.276 224.400,60.296 224.225,60.972 224.012 C 61.647 223.799,63.460 223.249,65.000 222.791 C 66.540 222.333,68.430 221.679,69.200 221.336 C 72.485 219.876,74.830 218.675,75.031 218.349 C 75.327 217.871,75.312 217.877,72.600 219.280 M312.000 262.664 C 318.288 262.928,325.710 264.350,330.369 266.184 C 331.782 266.740,333.017 267.117,333.112 267.021 C 333.319 266.815,330.513 265.600,329.831 265.600 C 329.572 265.600,329.189 265.443,328.980 265.251 C 328.575 264.878,323.377 263.575,319.376 262.843 C 318.043 262.600,315.253 262.435,313.176 262.477 C 310.378 262.534,310.073 262.582,312.000 262.664 M117.284 300.215 C 117.001 300.537,116.281 300.813,115.684 300.828 C 115.088 300.844,114.240 301.023,113.800 301.227 C 113.243 301.485,113.547 301.523,114.800 301.352 C 116.804 301.079,118.000 300.569,118.000 299.986 C 118.000 299.482,117.903 299.513,117.284 300.215 M324.800 312.394 L 324.800 324.789 312.300 324.900 L 299.800 325.012 312.500 325.106 L 325.200 325.200 325.200 312.600 C 325.200 305.670,325.110 300.000,325.000 300.000 C 324.890 300.000,324.800 305.577,324.800 312.394 M110.600 302.000 L 109.800 302.344 110.600 302.344 C 111.040 302.344,111.760 302.189,112.200 302.000 L 113.000 301.656 112.200 301.656 C 111.760 301.656,111.040 301.811,110.600 302.000 M103.097 305.006 C 101.171 305.978,98.551 307.483,97.275 308.349 C 96.000 309.215,94.516 310.007,93.978 310.107 C 93.155 310.262,93.200 310.300,94.267 310.346 C 94.963 310.375,95.593 310.255,95.667 310.077 C 95.934 309.429,99.499 307.261,103.597 305.255 C 105.906 304.125,107.526 303.208,107.197 303.219 C 106.869 303.229,105.024 304.033,103.097 305.006 M262.477 313.176 C 262.435 315.253,262.600 318.043,262.843 319.376 C 263.575 323.377,264.878 328.575,265.251 328.980 C 265.443 329.189,265.600 329.572,265.600 329.831 C 265.600 330.513,266.815 333.319,267.021 333.112 C 267.117 333.017,266.740 331.782,266.184 330.369 C 264.350 325.710,262.928 318.288,262.664 312.000 C 262.582 310.073,262.534 310.378,262.477 313.176 M170.140 328.600 C 170.239 329.040,170.795 330.660,171.375 332.200 C 173.388 337.545,174.221 341.685,174.756 349.000 L 175.077 353.400 175.139 350.165 C 175.204 346.696,174.445 340.972,173.373 336.868 C 172.766 334.541,169.730 326.779,170.140 328.600 M118.900 337.499 C 122.365 337.566,128.035 337.566,131.500 337.499 C 134.965 337.433,132.130 337.378,125.200 337.378 C 118.270 337.378,115.435 337.433,118.900 337.499 M118.725 362.699 C 122.314 362.766,128.074 362.766,131.525 362.699 C 134.976 362.633,132.040 362.578,125.000 362.578 C 117.960 362.579,115.136 362.633,118.725 362.699 "
              stroke="none" fill="#cb9288" fill-rule="evenodd"/>
        <path id="path4"
              d="M211.646 60.067 C 211.621 60.434,211.496 61.064,211.370 61.467 C 211.152 62.162,211.163 62.163,211.597 61.487 C 211.848 61.096,211.973 60.466,211.873 60.087 C 211.711 59.468,211.688 59.466,211.646 60.067 M210.846 63.067 C 210.821 63.324,210.684 63.864,210.541 64.267 C 210.340 64.836,210.394 64.897,210.779 64.542 C 211.052 64.291,211.189 63.751,211.084 63.342 C 210.979 62.934,210.872 62.810,210.846 63.067 M204.631 77.087 C 203.844 78.346,203.200 79.551,203.200 79.766 C 203.200 80.138,205.004 77.462,205.972 75.653 C 206.892 73.933,206.021 74.865,204.631 77.087 M122.840 81.039 C 123.685 82.305,126.031 84.904,126.182 84.742 C 126.255 84.664,125.407 83.610,124.297 82.400 C 123.187 81.190,122.531 80.577,122.840 81.039 M127.239 86.100 C 127.335 86.155,128.220 86.920,129.206 87.800 L 131.000 89.400 129.419 87.700 C 128.549 86.765,127.664 86.000,127.452 86.000 C 127.240 86.000,127.144 86.045,127.239 86.100 M135.200 92.364 C 135.750 92.814,136.380 93.183,136.600 93.185 C 137.028 93.188,136.305 92.634,135.000 91.960 C 134.469 91.685,134.536 91.821,135.200 92.364 M308.069 96.839 C 307.310 98.054,307.766 98.216,308.555 97.012 C 308.920 96.456,309.078 96.000,308.905 96.000 C 308.733 96.000,308.357 96.378,308.069 96.839 M305.814 100.635 C 305.441 101.204,305.227 101.761,305.339 101.872 C 305.450 101.983,305.829 101.518,306.181 100.837 C 306.959 99.333,306.744 99.215,305.814 100.635 M304.242 103.637 C 303.306 105.513,303.490 106.076,304.447 104.262 C 304.893 103.416,305.174 102.640,305.071 102.537 C 304.968 102.434,304.595 102.929,304.242 103.637 M302.958 106.700 C 302.839 107.085,302.575 107.713,302.371 108.095 C 302.167 108.477,302.011 109.107,302.025 109.495 C 302.044 110.001,302.168 109.917,302.466 109.200 C 303.097 107.680,303.567 106.000,303.360 106.000 C 303.258 106.000,303.077 106.315,302.958 106.700 M301.471 111.070 C 301.359 111.471,301.058 112.790,300.801 114.000 C 300.544 115.210,300.185 116.785,300.004 117.501 C 299.819 118.230,299.827 118.707,300.022 118.587 C 300.213 118.469,300.478 117.703,300.611 116.886 C 300.745 116.069,301.108 114.331,301.419 113.025 C 301.926 110.894,301.969 109.271,301.471 111.070 M74.800 131.324 C 74.800 131.434,75.655 132.019,76.700 132.625 C 79.002 133.958,81.730 136.125,85.193 139.370 C 86.619 140.707,87.249 141.189,86.593 140.443 C 83.463 136.884,74.800 130.185,74.800 131.324 M327.233 170.543 C 327.325 170.621,328.030 170.801,328.800 170.942 C 329.785 171.123,330.022 171.082,329.600 170.806 C 329.058 170.450,326.837 170.203,327.233 170.543 M338.200 174.000 C 338.336 174.220,338.842 174.387,339.324 174.372 C 340.169 174.345,340.171 174.331,339.400 174.000 C 338.299 173.527,337.908 173.527,338.200 174.000 M342.400 174.788 C 342.730 175.008,343.615 175.191,344.367 175.194 C 346.160 175.202,345.841 174.975,343.600 174.650 C 342.342 174.467,341.981 174.509,342.400 174.788 M79.582 215.421 C 79.299 215.763,77.837 216.761,76.333 217.639 C 74.830 218.517,73.600 219.325,73.600 219.435 C 73.600 219.713,77.117 217.680,78.788 216.435 C 79.552 215.866,80.542 215.283,80.988 215.140 C 81.781 214.886,81.780 214.879,80.949 214.840 C 80.481 214.818,79.866 215.080,79.582 215.421 M63.800 223.200 C 63.029 223.531,63.031 223.545,63.876 223.572 C 64.358 223.587,64.864 223.420,65.000 223.200 C 65.292 222.727,64.901 222.727,63.800 223.200 M318.800 262.800 C 319.350 262.976,320.250 263.120,320.800 263.120 L 321.800 263.120 320.800 262.800 C 320.250 262.624,319.350 262.480,318.800 262.480 L 317.800 262.480 318.800 262.800 M323.400 263.600 C 323.840 263.789,324.470 263.944,324.800 263.944 C 325.178 263.944,325.104 263.817,324.600 263.600 C 324.160 263.411,323.530 263.256,323.200 263.256 C 322.822 263.256,322.896 263.383,323.400 263.600 M326.600 264.400 C 327.040 264.589,327.670 264.744,328.000 264.744 C 328.378 264.744,328.304 264.617,327.800 264.400 C 327.360 264.211,326.730 264.056,326.400 264.056 C 326.022 264.056,326.096 264.183,326.600 264.400 M113.600 300.797 C 113.050 300.980,112.084 301.245,111.453 301.384 C 110.822 301.524,110.385 301.719,110.483 301.816 C 110.580 301.913,111.636 301.741,112.830 301.433 C 114.023 301.124,115.450 300.791,116.000 300.691 C 116.885 300.530,116.863 300.506,115.800 300.486 C 115.140 300.473,114.150 300.613,113.600 300.797 M108.200 302.400 C 108.064 302.620,107.614 302.800,107.200 302.800 C 106.786 302.800,106.343 302.968,106.216 303.174 C 105.977 303.562,107.344 303.237,109.200 302.466 C 110.147 302.073,110.153 302.049,109.324 302.025 C 108.842 302.011,108.336 302.180,108.200 302.400 M103.470 304.279 C 102.848 304.605,102.426 304.959,102.532 305.065 C 102.638 305.171,103.416 304.893,104.262 304.447 C 105.108 304.000,105.530 303.646,105.200 303.660 C 104.870 303.674,104.091 303.952,103.470 304.279 M100.400 306.033 L 99.400 306.848 100.700 306.214 C 101.415 305.865,102.000 305.494,102.000 305.390 C 102.000 304.992,101.363 305.248,100.400 306.033 M96.629 308.209 C 96.205 308.529,95.938 308.871,96.035 308.969 C 96.132 309.066,96.659 308.802,97.206 308.382 C 97.753 307.961,98.020 307.620,97.800 307.622 C 97.580 307.624,97.053 307.888,96.629 308.209 M262.480 318.800 C 262.480 319.350,262.624 320.250,262.800 320.800 L 263.120 321.800 263.120 320.800 C 263.120 320.250,262.976 319.350,262.800 318.800 L 262.480 317.800 262.480 318.800 M263.256 323.200 C 263.256 323.530,263.411 324.160,263.600 324.600 C 263.817 325.104,263.944 325.178,263.944 324.800 C 263.944 324.470,263.789 323.840,263.600 323.400 C 263.383 322.896,263.256 322.822,263.256 323.200 M264.056 326.400 C 264.056 326.730,264.211 327.360,264.400 327.800 C 264.617 328.304,264.744 328.378,264.744 328.000 C 264.744 327.670,264.589 327.040,264.400 326.600 C 264.183 326.096,264.056 326.022,264.056 326.400 M170.406 328.233 C 170.409 328.655,170.595 329.270,170.818 329.600 C 171.115 330.038,171.152 329.876,170.956 329.000 C 170.627 327.529,170.398 327.210,170.406 328.233 M173.628 338.276 C 173.718 339.315,174.344 340.196,174.372 339.324 C 174.387 338.842,174.220 338.336,174.000 338.200 C 173.780 338.064,173.613 338.098,173.628 338.276 M174.650 343.600 C 174.975 345.841,175.202 346.160,175.194 344.367 C 175.191 343.615,175.008 342.730,174.788 342.400 C 174.509 341.981,174.467 342.342,174.650 343.600 "
              stroke="none" fill="#bca4a0" fill-rule="evenodd"/>
    </g>
</svg>
