<?xml version="1.0" encoding="UTF-8"?>
<svg version="1.1" xmlns="http://www.w3.org/2000/svg" width="512" height="512">
    <!-- Icon made by Three musketeers from www.flaticon.com -->
    <path d="M0 0 C1.04516914 -0.00694553 2.09033829 -0.01389106 3.16717923 -0.02104706 C6.65701108 -0.03929157 10.1461612 -0.02905935 13.63601685 -0.01878357 C16.14311226 -0.02584332 18.65020341 -0.03458857 21.1572876 -0.04489136 C27.25302825 -0.06505424 33.34851844 -0.06641409 39.44427954 -0.05826581 C44.4011152 -0.05195617 49.35789649 -0.05311167 54.3147316 -0.05953789 C55.02125293 -0.06043954 55.72777426 -0.0613412 56.45570532 -0.06227018 C57.89118775 -0.06412146 59.32667017 -0.06598402 60.76215257 -0.06785773 C74.21281831 -0.08442345 87.66337906 -0.07572789 101.11403848 -0.05887216 C113.40619956 -0.04418024 125.6981161 -0.0587985 137.99024568 -0.08764232 C150.62637256 -0.1170714 163.26238671 -0.12799814 175.89854634 -0.11846012 C177.32924658 -0.11743762 178.75994684 -0.11644301 180.19064713 -0.11547661 C181.24641493 -0.11476202 181.24641493 -0.11476202 182.32351138 -0.114033 C187.2702414 -0.11187328 192.21686416 -0.12164945 197.1635704 -0.13624763 C203.83022218 -0.15564782 210.49634846 -0.14863201 217.16300583 -0.12404823 C219.6066719 -0.11904381 222.05037261 -0.1225204 224.49401093 -0.13519669 C227.83620778 -0.1511597 231.17691571 -0.13614353 234.51904297 -0.11352539 C235.48054036 -0.12536112 236.44203775 -0.13719685 237.43267143 -0.14939123 C245.19537791 -0.0430431 252.12256765 2.16021842 257.64041138 7.83106995 C258.07224731 8.57228088 258.50408325 9.31349182 258.94900513 10.0771637 C259.40404419 10.82095276 259.85908325 11.56474182 260.32791138 12.33106995 C264.43438458 20.801618 262.3475149 30.12565592 259.89431763 38.76856995 C259.63283936 39.7305127 259.37136108 40.69245544 259.10195923 41.68354797 C258.54051666 43.74559667 257.97369594 45.80618738 257.40194702 47.86540222 C255.8784677 53.36048531 254.40136781 58.86808542 252.91775513 64.3740387 C252.61688995 65.48656509 252.31602478 66.59909149 252.00604248 67.74533081 C245.72529859 91.01740517 240.00768225 114.41667435 235.38650513 138.0771637 C235.24416443 138.80166718 235.10182373 139.52617065 234.95516968 140.27262878 C223.86272552 197.20135543 244.21906136 255.5226273 258.96463013 310.42652893 C259.19926468 311.30182251 259.43389923 312.17711609 259.67564392 313.07893372 C260.09585975 314.63701268 260.52071919 316.1938521 260.95173645 317.74897766 C263.43934805 326.9416911 263.8418591 334.85252239 259.08572388 343.31544495 C255.55771676 347.88157829 250.80805595 350.70748009 245.38650513 352.5146637 C243.94240257 352.60837524 242.49438123 352.64730418 241.04724789 352.65167809 C239.70991475 352.6592899 239.70991475 352.6592899 238.34556478 352.66705549 C236.87478022 352.66780212 236.87478022 352.66780212 235.37428284 352.66856384 C234.33338582 352.6729461 233.2924888 352.67732835 232.22004944 352.6818434 C228.71490462 352.69525059 225.20978495 352.70141462 221.70462036 352.70753479 C219.19826646 352.71543431 216.69191369 352.72370317 214.18556213 352.73231506 C206.6509237 352.75628896 199.11628651 352.77146681 191.58162197 352.78437513 C189.4528305 352.78808771 187.32403967 352.7920609 185.19524884 352.7961278 C171.97132819 352.82136788 158.74740649 352.84341766 145.52346706 352.85585594 C142.46047906 352.85878557 139.39749109 352.86174724 136.33450317 352.86476135 C135.5732254 352.8655074 134.81194763 352.86625345 134.02760083 352.86702211 C121.70281059 352.87966839 109.37816485 352.91288157 97.05344211 352.95456319 C84.39489898 352.99702209 71.73642973 353.02055564 59.07781559 353.02577651 C51.97253382 353.02918644 44.86747774 353.04089177 37.76226616 353.07387924 C31.07520866 353.10487461 24.38861262 353.11027447 17.70147133 353.09849548 C15.24972951 353.09827467 12.7979695 353.10658581 10.34629059 353.12414932 C6.99292639 353.14686073 3.64098528 353.13853513 0.28761292 353.12266541 C-0.67729508 353.13654749 -1.64220307 353.15042958 -2.63635069 353.16473234 C-9.57398463 353.08411739 -14.76597076 351.26572252 -20.61349487 347.5146637 C-22.86740112 345.19825745 -22.86740112 345.19825745 -24.17599487 342.9521637 C-24.85855347 341.8364801 -24.85855347 341.8364801 -25.55490112 340.69825745 C-29.2495236 333.07724651 -27.80496117 324.87002797 -25.59396362 317.0302887 C-25.3797023 316.23351212 -25.16544098 315.43673553 -24.94468689 314.61581421 C-24.48145779 312.89603907 -24.01344883 311.17754556 -23.54110718 309.46025085 C-22.25635725 304.78102124 -21.01394633 300.09049229 -19.76583862 295.40138245 C-19.50533722 294.42612106 -19.24483582 293.45085968 -18.97644043 292.44604492 C3.93527757 206.45238742 5.82540106 140.25783095 -19.61349487 54.1474762 C-19.84844666 53.34862 -20.08339844 52.54976379 -20.32546997 51.72669983 C-21.40928498 48.05765634 -22.51576446 44.3984 -23.66720581 40.75001526 C-26.47220459 31.63777718 -29.14523966 21.40341324 -25.22189331 12.27784729 C-19.40268061 2.2806024 -10.87732529 -0.0927964 0 0 Z M-9.61349487 19.5146637 C-10.38675347 26.82878027 -8.13730935 33.23160012 -5.96862793 40.13032532 C23.19663015 133.36796392 22.17269856 207.81548258 -3.64474487 301.72169495 C-3.88231003 302.58693283 -4.11987518 303.45217072 -4.36463928 304.34362793 C-5.47234373 308.36047267 -6.59859092 312.37079856 -7.75534058 316.37379456 C-8.15211962 317.78011168 -8.54885114 319.18644222 -8.94552612 320.5927887 C-9.2933313 321.79322815 -9.64113647 322.9936676 -9.9994812 324.23048401 C-10.65318248 327.72694108 -10.54002803 330.09390452 -9.61349487 333.5146637 C-5.84397363 337.28418494 -0.76101875 336.63374976 4.28548664 336.6530692 C5.65824264 336.6507463 5.65824264 336.6507463 7.05873108 336.64837646 C8.03882237 336.65064202 9.01891367 336.65290758 10.0287047 336.65524179 C13.31587083 336.66157663 16.60299568 336.66075275 19.89016724 336.65992737 C22.24567213 336.66291915 24.60117654 336.66632172 26.9566803 336.67010498 C33.35741201 336.67894645 39.75813037 336.68128313 46.1588676 336.68192077 C50.15622656 336.68241483 54.15358385 336.68470073 58.15094185 336.68741798 C71.37201566 336.69622217 84.59308137 336.70083764 97.81415813 336.70008751 C98.52663372 336.70004755 99.2391093 336.7000076 99.97317505 336.69996643 C101.04319431 336.69990511 101.04319431 336.69990511 102.13483012 336.69984255 C113.69908867 336.69943598 125.26331468 336.70900889 136.82756381 336.7231048 C148.70418373 336.73746718 160.58078777 336.74437508 172.45741659 336.74351102 C179.12426646 336.74317904 185.79108702 336.74612108 192.45792961 336.75668907 C198.7263028 336.76635412 204.9946038 336.76646016 211.26297951 336.75917244 C213.56480896 336.75812467 215.86664287 336.76050082 218.16846466 336.7665329 C221.30816041 336.77422846 224.44760534 336.76962406 227.58729553 336.76190186 C228.95670545 336.7696172 228.95670545 336.7696172 230.35378021 336.77748841 C235.97066368 336.74691487 241.19225479 336.70891403 245.38650513 332.5146637 C245.65864719 325.33154713 243.44511596 318.13491556 241.57791138 311.2724762 C240.99438621 309.07108946 240.41097632 306.86967216 239.82766724 304.66822815 C239.36769852 302.94909714 239.36769852 302.94909714 238.8984375 301.19523621 C217.29601527 220.29534189 211.00383427 160.31510924 231.44900513 78.7021637 C231.70899607 77.66388428 231.70899607 77.66388428 231.97423935 76.60462952 C233.15851247 71.87896962 234.35004751 67.15518167 235.54666138 62.43263245 C235.70997389 61.78685116 235.8732864 61.14106987 236.04154778 60.47571945 C237.70157838 53.9222987 239.40160453 47.38642218 241.25320435 40.8842926 C241.5398143 39.87248428 241.82642426 38.86067596 242.12171936 37.81820679 C242.65126153 35.96742447 243.19155212 34.11966583 243.74516296 32.27593994 C245.06153252 27.68759249 245.83254988 24.23054027 244.38650513 19.5146637 C240.61698388 15.74514245 235.534029 16.39557764 230.48752362 16.37625819 C229.11476762 16.3785811 229.11476762 16.3785811 227.71427917 16.38095093 C226.73418788 16.37868537 225.75409658 16.37641981 224.74430555 16.37408561 C221.45713942 16.36775076 218.17001458 16.36857464 214.88284302 16.36940002 C212.52733812 16.36640825 210.17183371 16.36300568 207.81632996 16.35922241 C201.41559824 16.35038094 195.01487989 16.34804426 188.61414266 16.34740663 C184.6167837 16.34691256 180.61942641 16.34462666 176.62206841 16.34190941 C163.40099459 16.33310523 150.17992889 16.32848975 136.95885212 16.32923988 C136.24637654 16.32927984 135.53390096 16.32931979 134.79983521 16.32936096 C133.72981594 16.32942228 133.72981594 16.32942228 132.63818013 16.32948484 C121.07392158 16.32989141 109.50969557 16.32031851 97.94544644 16.3062226 C86.06882652 16.29186022 74.19222248 16.28495231 62.31559366 16.28581637 C55.6487438 16.28614835 48.98192323 16.28320631 42.31508064 16.27263832 C36.04670745 16.26297327 29.77840645 16.26286723 23.51003075 16.27015495 C21.20820129 16.27120272 18.90636738 16.26882657 16.60454559 16.26279449 C13.46484984 16.25509893 10.32540491 16.25970333 7.18571472 16.26742554 C6.27277478 16.26228197 5.35983483 16.25713841 4.41923004 16.25183898 C-3.15345154 16.12712039 -3.15345154 16.12712039 -9.61349487 19.5146637 Z "
          fill="#b4b3bb" transform="translate(138.61349487304688,79.48533630371094)"/>
    <path d="M0 0 C5.02384366 3.56586609 5.82818973 9.13978486 7.3515625 14.77734375 C7.65067535 15.84427963 7.94978821 16.91121552 8.25796509 18.01048279 C9.18599019 21.33663198 10.09452686 24.667649 11 28 C11.54486707 29.97683013 12.0900997 31.95355954 12.63574219 33.93017578 C14.24637788 39.79948932 15.81735705 45.67892407 17.375 51.5625 C17.65280304 52.61083008 17.93060608 53.65916016 18.21682739 54.73925781 C26.45325217 85.90013873 33.83833315 117.17056369 39 149 C39.17909912 150.09634766 39.17909912 150.09634766 39.36181641 151.21484375 C42.38906102 172.16010379 39.59152742 193.34402747 35.42712402 213.88433838 C34.98998769 216.04959372 34.56301988 218.21667303 34.13769531 220.38427734 C29.44122307 244.18232878 23.70128902 267.72462708 17.8125 291.25 C17.6407513 291.93659447 17.46900261 292.62318893 17.29204941 293.33058929 C15.19082501 301.72573643 13.06340188 310.11365659 10.90142822 318.4934082 C10.30952568 320.79593274 9.72272951 323.0997772 9.14154053 325.4050293 C8.36136385 328.49752363 7.56408027 331.58507468 6.76171875 334.671875 C6.42778862 336.01853241 6.42778862 336.01853241 6.08711243 337.39239502 C4.88427909 341.93153385 3.93205005 345.0793576 0 348 C-3.84435972 349.02115805 -7.08273462 348.52742759 -10.5 346.5625 C-13.47567597 341.47905355 -12.22439357 335.35138318 -10.90527344 329.84643555 C-10.40090128 327.94027167 -9.88493562 326.03714976 -9.359375 324.13671875 C-9.08112381 323.092276 -8.80287262 322.04783325 -8.51618958 320.97174072 C-7.91581062 318.71860924 -7.31099326 316.46665663 -6.70217896 314.21578979 C-5.06708022 308.15694745 -3.47597761 302.08662707 -1.88671875 296.015625 C-1.56005722 294.76857285 -1.23339569 293.52152069 -0.89683533 292.23667908 C22.86381199 201.0349044 20.92017944 135.31771344 -3.17578125 44.42578125 C-3.40306412 43.56752243 -3.63034698 42.70926361 -3.86451721 41.82499695 C-5.07463326 37.30298433 -6.34370869 32.80555007 -7.68896484 28.32177734 C-7.96717575 27.38536911 -8.24538666 26.44896088 -8.5320282 25.48417664 C-9.06244811 23.71037342 -9.60303094 21.93956161 -10.15608215 20.17268372 C-11.76595981 14.78133509 -12.71935587 9.63846098 -12 4 C-9.33965416 -0.54475748 -4.91183732 -1.30470679 0 0 Z "
          fill="#b4b3bb" transform="translate(72,84)"/>
    <path d="M0 0 C2.5 1.4375 2.5 1.4375 4 4 C4.50590425 11.28367218 3.12677838 17.32617108 1.10546875 24.29296875 C0.80219666 25.37633011 0.49892456 26.45969147 0.1864624 27.57588196 C-0.46542726 29.90390718 -1.12197517 32.23063212 -1.78274536 34.55615234 C-3.53667447 40.74124356 -5.24605288 46.93855738 -6.953125 53.13671875 C-7.29863907 54.39036224 -7.64415314 55.64400574 -8.00013733 56.93563843 C-15.95483709 85.95690411 -22.90032487 115.33473357 -28 145 C-28.19070068 146.08853271 -28.38140137 147.17706543 -28.57788086 148.29858398 C-32.15083815 169.81763998 -29.67564211 190.63515794 -25.42712402 211.86291504 C-24.99198992 214.04007789 -24.56454718 216.21866054 -24.13769531 218.39746094 C-18.32764836 247.8442042 -10.93551648 276.92352593 -3.57421875 306.01171875 C-3.12302673 307.79555717 -3.12302673 307.79555717 -2.66271973 309.61543274 C-1.44008655 314.42622206 -0.21467706 319.23452476 1.09432983 324.02261353 C1.277214 324.69474538 1.46009817 325.36687723 1.64852428 326.05937672 C2.16260693 327.94190597 2.68205483 329.82296769 3.201828 331.70393372 C4.48077795 336.98538159 5.36839404 341.66232684 2.5 346.5625 C-0.91726538 348.52742759 -4.15564028 349.02115805 -8 348 C-11.48982253 345.08410018 -12.72201176 342.66665453 -13.87915039 338.30712891 C-14.34374916 336.59328506 -14.34374916 336.59328506 -14.81773376 334.84481812 C-15.13698318 333.60954376 -15.4562326 332.37426941 -15.78515625 331.1015625 C-16.13173118 329.7978193 -16.47924704 328.49432591 -16.82765198 327.19107056 C-17.90646902 323.13282017 -18.95561678 319.06722567 -20 315 C-20.31990906 313.75988159 -20.63981812 312.51976318 -20.96942139 311.24206543 C-23.18067248 302.63316229 -25.32227807 294.00794552 -27.4375 285.375 C-27.76273878 284.0509015 -28.08798505 282.72680485 -28.41323853 281.40270996 C-33.97406647 258.73457802 -39.17219602 236.00937786 -43.59436035 213.08898926 C-43.97290571 211.13953194 -44.3624947 209.19222811 -44.75292969 207.24511719 C-56.38823629 148.63205031 -35.02664915 87.24536472 -20 31 C-19.59502143 29.47819826 -19.190071 27.95638903 -18.78515625 26.43457031 C-17.82883217 22.84842154 -16.85603213 19.26697861 -15.875 15.6875 C-15.61638184 14.7291626 -15.35776367 13.7708252 -15.09130859 12.78344727 C-13.88159607 8.46625001 -12.70258434 4.65944528 -10 1 C-6.78897726 -0.60551137 -3.48300792 -0.46807221 0 0 Z "
          fill="#b4b3bb" transform="translate(448,84)"/>
    <path d="M0 0 C2.5 1.5 2.5 1.5 4 4 C4.45403013 7.17821088 4.68259493 8.98570913 4 12 C1.42088802 15.38508447 -1.80668146 17.61975151 -5.1875 20.1484375 C-5.90292969 20.68388184 -6.61835938 21.21932617 -7.35546875 21.77099609 C-8.16951172 22.37935303 -8.16951172 22.37935303 -9 23 C-7.77893555 23.0093457 -6.55787109 23.01869141 -5.29980469 23.02832031 C-0.76704501 23.06820923 3.76503515 23.13396493 8.29736328 23.20751953 C10.25853747 23.23573553 12.21982551 23.25694694 14.18115234 23.27099609 C17.00156977 23.29241699 19.82061743 23.33906209 22.640625 23.390625 C23.95489471 23.39246796 23.95489471 23.39246796 25.29571533 23.39434814 C31.38741619 23.54073797 31.38741619 23.54073797 34.55175781 25.91308594 C36.12021305 28.17322676 36.54255784 29.27629801 36.5 32 C36.51546875 32.99 36.51546875 32.99 36.53125 34 C35.71630627 37.06802346 34.55183977 38.08685262 32 40 C28.8876862 40.62109685 25.80671974 40.60493529 22.640625 40.609375 C21.73624695 40.62591125 20.8318689 40.64244751 19.90008545 40.65948486 C17.01665479 40.70799979 14.13375166 40.72934344 11.25 40.75 C9.29294216 40.77815678 7.33590893 40.80808379 5.37890625 40.83984375 C0.58598092 40.91375969 -4.20665096 40.96331298 -9 41 C-8.31292969 41.54269531 -7.62585938 42.08539063 -6.91796875 42.64453125 C-6.01691406 43.35996094 -5.11585938 44.07539063 -4.1875 44.8125 C-3.29417969 45.52019531 -2.40085937 46.22789062 -1.48046875 46.95703125 C3.93528505 51.41756549 3.93528505 51.41756549 4.4375 55.9375 C4.30435084 58.82949983 4.03106851 59.94821914 2.5 62.5 C-0.94567559 64.56740535 -4.11603489 64.55236989 -8 64 C-11.10546875 62.375 -11.10546875 62.375 -14.1875 60 C-15.0396106 59.35514648 -15.0396106 59.35514648 -15.90893555 58.69726562 C-17.20038572 57.7164602 -18.4852196 56.72690475 -19.76464844 55.73046875 C-22.33562879 53.74017727 -24.9357647 51.79156668 -27.5390625 49.84375 C-29.46430566 48.39684934 -31.38878643 46.9489337 -33.3125 45.5 C-34.25053467 44.79359375 -35.18856934 44.0871875 -36.1550293 43.359375 C-37.02812744 42.69421875 -37.90122559 42.0290625 -38.80078125 41.34375 C-39.58622314 40.74755859 -40.37166504 40.15136719 -41.1809082 39.53710938 C-44.02960306 37.12999854 -43.99774373 36.0229387 -44.375 32.1875 C-44.60328433 29.08163166 -44.13903708 28.1672475 -42.11328125 25.73046875 C-37.94572207 21.88241261 -33.33632888 18.53620289 -28.8125 15.125 C-27.91724609 14.44308594 -27.02199219 13.76117188 -26.09960938 13.05859375 C-23.41241622 11.0213715 -20.71107172 9.00531917 -18 7 C-16.6382666 5.98860962 -16.6382666 5.98860962 -15.24902344 4.95678711 C-13.93659668 4.00557983 -13.93659668 4.00557983 -12.59765625 3.03515625 C-11.42795288 2.18256226 -11.42795288 2.18256226 -10.23461914 1.31274414 C-6.50910514 -0.87583761 -4.22326361 -0.80096379 0 0 Z "
          fill="#b4b3bb" transform="translate(476,224)"/>
    <path d="M0 0 C3.36219361 1.75091163 6.23027176 4.01635565 9.1875 6.375 C10.0132251 7.00970215 10.8389502 7.6444043 11.68969727 8.29833984 C13.35468383 9.58084042 15.01357578 10.87129547 16.66601562 12.16992188 C18.75576765 13.80849731 20.86234851 15.41921817 22.984375 17.015625 C35.81453403 26.70173824 35.81453403 26.70173824 36.5625 31.9375 C36.66737256 35.04049399 36.05923137 35.93106992 33.99609375 38.33203125 C27.46063901 44.40340258 20.0971232 49.61523742 13 55 C12.34741211 55.50305664 11.69482422 56.00611328 11.02246094 56.52441406 C0.62793986 64.49821649 0.62793986 64.49821649 -4.5625 64.8125 C-8 64 -8 64 -10.5 62.5 C-12.15531007 59.74114988 -12.92089341 57.47731847 -12.79296875 54.23046875 C-10.69812255 48.33806886 -4.01776063 44.34517376 1 41 C-0.22106445 40.9906543 -1.44212891 40.98130859 -2.70019531 40.97167969 C-7.23295499 40.93179077 -11.76503515 40.86603507 -16.29736328 40.79248047 C-18.25853747 40.76426447 -20.21982551 40.74305306 -22.18115234 40.72900391 C-25.00156977 40.70758301 -27.82061743 40.66093791 -30.640625 40.609375 C-31.95489471 40.60753204 -31.95489471 40.60753204 -33.29571533 40.60565186 C-39.38741619 40.45926203 -39.38741619 40.45926203 -42.55175781 38.08691406 C-44.12021305 35.82677324 -44.54255784 34.72370199 -44.5 32 C-44.51546875 31.01 -44.51546875 31.01 -44.53125 30 C-43.71630627 26.93197654 -42.55183977 25.91314738 -40 24 C-36.8876862 23.37890315 -33.80671974 23.39506471 -30.640625 23.390625 C-29.73624695 23.37408875 -28.8318689 23.35755249 -27.90008545 23.34051514 C-25.01665479 23.29200021 -22.13375166 23.27065656 -19.25 23.25 C-17.29294216 23.22184322 -15.33590893 23.19191621 -13.37890625 23.16015625 C-8.58598092 23.08624031 -3.79334904 23.03668702 1 23 C0.14535156 22.37351563 -0.70929687 21.74703125 -1.58984375 21.1015625 C-2.70588611 20.27625386 -3.82176298 19.45072138 -4.9375 18.625 C-5.50146484 18.2125 -6.06542969 17.8 -6.64648438 17.375 C-10.88671875 14.2265625 -10.88671875 14.2265625 -12 12 C-12.56872038 4.9478673 -12.56872038 4.9478673 -10.5 1.5 C-6.99092069 -0.60544758 -3.93367716 -0.77503361 0 0 Z "
          fill="#b4b3bb" transform="translate(44,224)"/>
</svg>
