<?xml version="1.0" encoding="UTF-8"?>
<svg version="1.1" xmlns="http://www.w3.org/2000/svg" width="512" height="512">
    <!-- Icon made by Tanah Basah from www.flaticon.com -->
    <path d="M0 0 C0.994306 -0.00644889 1.98861199 -0.01289778 3.01304847 -0.0195421 C4.6405607 -0.01489629 4.6405607 -0.01489629 6.30095196 -0.01015663 C7.45930843 -0.01468774 8.61766489 -0.01921886 9.81112307 -0.02388728 C13.02247142 -0.03435685 16.23367892 -0.03585722 19.44503891 -0.03349853 C22.91004707 -0.03309027 26.37502186 -0.04413032 29.84001446 -0.05361366 C36.62724859 -0.07022292 43.41444797 -0.07572318 50.20170072 -0.07683842 C55.71925287 -0.07778895 61.23679356 -0.08189949 66.75434208 -0.08823967 C82.40013992 -0.10585204 98.04591032 -0.11507857 113.69171814 -0.11357872 C114.53509608 -0.11349881 115.37847402 -0.1134189 116.24740887 -0.11333656 C117.51402177 -0.11321392 117.51402177 -0.11321392 118.80622282 -0.1130888 C132.49018424 -0.11227595 146.17403557 -0.13141339 159.85796515 -0.1596133 C173.91100414 -0.18834516 187.96398944 -0.20215342 202.01705855 -0.20042574 C209.90579228 -0.19976194 217.79441061 -0.20525014 225.68311787 -0.22678185 C232.39997973 -0.24499767 239.11667389 -0.24933777 245.83354978 -0.235763 C249.25941882 -0.22923521 252.68496616 -0.22910876 256.11080456 -0.2464695 C259.8280395 -0.26187865 263.5444289 -0.25264099 267.26164532 -0.23720741 C268.3399613 -0.24749454 269.41827729 -0.25778167 270.52926952 -0.26838052 C278.11569162 -0.19875197 283.76622354 1.1219918 289.28818035 6.52289391 C291.35273478 9.87599854 292.70291119 13.28177319 293.9092741 17.00726891 C294.16088299 17.77297203 294.41249187 18.53867516 294.67172527 19.32758141 C306.69916978 57.68231169 308.40183335 106.39715041 289.9717741 143.25726891 C287.74580878 146.33937474 285.13841166 148.1461772 281.9717741 150.25726891 C279.13472271 150.52228355 279.13472271 150.52228355 275.63949871 150.54437828 C274.33061184 150.55779259 273.02172497 150.57120689 271.67317486 150.58502769 C270.97322336 150.58759071 270.27327187 150.59015373 269.55210972 150.59279442 C267.35202428 150.60110233 265.15235025 150.62162982 262.95238018 150.64533043 C258.27140633 150.69355886 253.59039045 150.72642629 248.9092741 150.75726891 C243.50602952 150.79307505 238.10298248 150.83534618 232.69992542 150.89320946 C230.5475884 150.91307161 228.39540798 150.92155905 226.24299908 150.92951012 C214.90000761 151.01719494 204.7322126 151.36077898 195.9717741 159.25726891 C192.2751466 163.92437141 189.85138788 168.42485584 189.83216381 174.46361637 C189.82910024 175.30144447 189.82603667 176.13927256 189.82288027 177.00248939 C189.82872566 178.35519102 189.82872566 178.35519102 189.83468914 179.73521996 C189.83732092 180.67498623 189.83995271 181.61475251 189.84266424 182.58299655 C189.91081865 191.95669704 190.47765557 201.26475757 191.16513348 210.61005211 C191.29386465 212.43620852 191.42192029 214.26241265 191.54936504 216.08865929 C191.82186697 219.97476828 192.0987929 223.86052549 192.3793211 227.74606323 C192.82452602 233.91606466 193.25801847 240.08685757 193.68991375 246.25780296 C194.76405481 261.5793735 195.85416118 276.89980347 196.94546795 292.22015953 C197.79489504 304.14832232 198.64019194 316.07675178 199.47434568 328.00599355 C199.83261442 333.12423184 200.19424841 338.24218241 200.5642271 343.35958862 C203.21362376 380.02997794 203.21362376 380.02997794 203.24716473 394.42987633 C203.24955402 395.34210362 203.25194332 396.25433092 203.25440502 397.19420147 C203.04898858 414.43398217 195.80306636 429.43859105 183.7998991 441.59711266 C169.8545795 454.71418814 152.75652946 460.63625418 133.7686491 460.47601891 C115.68761163 459.43431304 99.23862162 451.7352445 86.81161785 438.54633141 C76.34107881 425.51929133 70.55761006 411.04126511 70.66903973 394.37909508 C70.67338276 393.36562854 70.67772579 392.352162 70.68220043 391.30798435 C70.90762507 374.29608586 72.37055048 357.31252444 73.5968523 340.35077882 C73.96815834 335.18420716 74.3285912 330.0168776 74.68991375 324.84959984 C75.52961097 312.86463982 76.38118 300.88053969 77.234828 288.89656639 C78.32195405 273.63297638 79.40597696 258.36918362 80.47434568 243.10426778 C80.90251346 236.99297946 81.33780014 230.88225603 81.77895641 224.77189219 C82.05345534 220.94936967 82.32176231 217.12642922 82.58855534 213.30336189 C82.71173892 211.55590256 82.83737181 209.80861351 82.96589375 208.0615387 C83.65459003 198.68062173 84.09882576 189.32639233 84.17135906 179.91881371 C84.1836349 179.04162566 84.19591073 178.16443761 84.20855856 177.2606681 C84.20981732 170.70632409 83.39549314 165.37219405 78.9717741 160.25726891 C71.0837857 152.73505416 62.85180167 151.13559486 52.13778973 151.13129234 C50.8195219 151.12748558 49.50125408 151.12367882 48.14303875 151.1197567 C47.10079395 151.1194659 47.10079395 151.1194659 46.03749371 151.11916924 C42.31888423 151.11482061 38.60044241 151.08372853 34.88193035 151.05805016 C30.16817186 151.02769155 25.4546827 151.00495369 20.74081707 151.00678062 C16.91338768 151.00756979 13.08675951 150.98412967 9.2595396 150.94489861 C7.80841459 150.93447842 6.35719668 150.93288517 4.9060545 150.94054985 C-9.17186027 151.0075273 -9.17186027 151.0075273 -15.0282259 145.25726891 C-17.44597761 141.59145086 -18.68318511 137.41991207 -20.0282259 133.25726891 C-20.27459797 132.49784996 -20.52097004 131.73843102 -20.77480793 130.95599937 C-22.73702274 124.77532647 -24.45999114 118.5490456 -26.0282259 112.25726891 C-26.2119173 111.52250328 -26.39560871 110.78773766 -26.58486652 110.03070641 C-31.7182702 88.18817602 -31.47291708 60.9525101 -26.0282259 39.25726891 C-25.84598469 38.48189781 -25.66374348 37.70652672 -25.4759798 36.90765953 C-18.97731008 9.34939093 -18.97731008 9.34939093 -13.0282259 4.06976891 C-8.63858749 1.4176957 -5.15009099 0.00847145 0 0 Z M9.9717741 33.25726891 C5.6219541 46.76866162 5.6219541 46.76866162 4.9717741 59.25726891 C92.0917741 59.25726891 179.2117741 59.25726891 268.9717741 59.25726891 C268.10450668 48.14714186 268.10450668 48.14714186 263.9717741 33.25726891 C180.1517741 33.25726891 96.3317741 33.25726891 9.9717741 33.25726891 Z M4.9717741 92.25726891 C5.73169339 104.05526997 5.73169339 104.05526997 9.9717741 118.25726891 C93.7917741 118.25726891 177.6117741 118.25726891 263.9717741 118.25726891 C267.40916964 105.35798354 267.40916964 105.35798354 268.9717741 92.25726891 C181.8517741 92.25726891 94.7317741 92.25726891 4.9717741 92.25726891 Z M111.9717741 150.25726891 C113.2917741 153.88726891 114.6117741 157.51726891 115.9717741 161.25726891 C120.54031903 184.09999355 116.02757401 210.27584659 114.3466959 233.33187485 C113.97465011 238.4686133 113.61468267 243.60619801 113.25363445 248.7437191 C112.41519162 260.64749119 111.56276342 272.55024055 110.70872021 284.45290184 C109.6203335 299.63116016 108.53857151 314.80988052 107.46920252 329.98949099 C107.04071156 336.06535447 106.60546686 342.14068223 106.16459179 348.21565914 C105.89055004 352.00970509 105.62209686 355.80413281 105.35499287 359.59867287 C105.23158249 361.33567193 105.10592738 363.07251348 104.97765446 364.80916023 C104.31945559 373.73633161 103.85411369 382.63522452 103.79562664 391.58844566 C103.78192602 392.76663282 103.78192602 392.76663282 103.76794863 393.96862173 C103.77658532 400.06440603 104.77021909 404.98118604 107.9717741 410.25726891 C108.39587566 410.97012047 108.81997723 411.68297203 109.25693035 412.41742516 C114.40862229 420.09473765 121.70465253 424.49378443 130.56943035 426.78851891 C139.57576108 428.54585173 147.86443607 426.40461872 155.6592741 421.63226891 C163.36181252 416.11098031 167.63497448 409.33707533 169.9717741 400.25726891 C170.32347526 397.28120305 170.31544032 394.37415905 170.23385906 391.38141441 C170.22220384 390.56182511 170.21054862 389.7422358 170.19854021 388.89781046 C170.02975672 380.00340843 169.43353047 371.14034671 168.77841473 362.27094078 C168.64973642 360.45979564 168.52167857 358.64860634 168.39418316 356.83737755 C168.1212704 352.97691587 167.8443522 349.11677135 167.5642271 345.2568264 C167.11946373 339.12394008 166.68574592 332.99030103 166.25363445 326.85651207 C165.17874508 311.62140215 164.09114147 296.3872035 162.99808025 281.15338707 C162.14790842 269.30379884 161.30203953 257.45393834 160.46920252 245.60311747 C160.11142939 240.51768817 159.75000224 235.43257998 159.3793211 230.34807396 C156.73050679 193.9811592 156.73050679 193.9811592 156.67294598 177.56390953 C156.6646489 175.97982418 156.6646489 175.97982418 156.6561842 174.36373711 C156.72458054 166.76399673 157.85938946 160.25700947 160.9717741 153.25726891 C161.3017741 152.26726891 161.6317741 151.27726891 161.9717741 150.25726891 C145.4717741 150.25726891 128.9717741 150.25726891 111.9717741 150.25726891 Z "
          fill="#b4b3bb" transform="translate(119.02822589874268,25.74273109436035)"/>
    <path d="M0 0 C4.8846525 2.26787438 7.73212562 5.1153475 10 10 C10.75381535 15.5997712 10.77303575 20.33499991 8.375 25.5 C3.80134327 30.3143755 0.6912538 32.25156236 -6 32.5 C-12.6912538 32.25156236 -15.80134327 30.3143755 -20.375 25.5 C-22.77303575 20.33499991 -22.75381535 15.5997712 -22 10 C-17.52212837 0.3553534 -9.85292056 -1.32635469 0 0 Z "
          fill="#b4b3bb" transform="translate(262,384)"/>
</svg>
