<?xml version="1.0" encoding="UTF-8"?>
<svg version="1.1" xmlns="http://www.w3.org/2000/svg" width="512" height="512">
    <!-- Icon made by Smartline from www.flaticon.com -->
    <path d="M0 0 C1.04877091 -0.00807831 1.04877091 -0.00807831 2.11872911 -0.01631981 C4.449411 -0.0305681 6.77952241 -0.02350375 9.11022949 -0.01637268 C10.78609166 -0.02207785 12.46194995 -0.02904268 14.13780212 -0.03717041 C18.68114936 -0.05509931 23.22430343 -0.05393412 27.7676754 -0.04822803 C31.56252128 -0.04513624 35.35733006 -0.05122841 39.15217066 -0.05726677 C48.10453031 -0.07130908 57.05679452 -0.06975274 66.00915527 -0.05836487 C75.24214778 -0.04687951 84.47484995 -0.06096699 93.7078042 -0.08776134 C101.6391843 -0.10991592 109.57047324 -0.1165564 117.50188208 -0.11068493 C122.23717039 -0.1073141 126.97227252 -0.10973897 131.70753479 -0.12693596 C136.15967025 -0.14239953 140.61137531 -0.13845621 145.06349373 -0.11963081 C146.69611084 -0.11594351 148.32875981 -0.11905756 149.96134758 -0.1295166 C152.19274515 -0.14271918 154.42271619 -0.13118764 156.65405273 -0.11352539 C157.90174187 -0.11331611 159.149431 -0.11310682 160.43492889 -0.1128912 C165.59735055 0.64892649 168.65707964 3.12287278 172.13952637 6.88768005 C175.25443574 11.5023606 174.97097485 16.02165983 174.95845413 21.4503603 C174.96050677 22.27342811 174.9625594 23.09649592 174.96467423 23.94450518 C174.9703578 26.72036288 174.96888531 29.49617118 174.96746826 32.27203369 C174.97005111 34.27515062 174.97306405 36.27826704 174.97647166 38.28138274 C174.9845542 43.79999849 174.98633193 49.31860125 174.98706913 54.83722222 C174.98891749 60.78349351 174.99646367 66.72975801 175.00320435 72.67602539 C175.01750556 86.36257052 175.02331513 100.04911468 175.02789629 113.73566557 C175.03023181 120.49777625 175.0338344 127.25988608 175.03759167 134.02199609 C175.05042676 157.16570123 175.06114646 180.30940589 175.06459427 203.45311451 C175.0648159 204.90600103 175.06503769 206.35888754 175.06525962 207.81177406 C175.06548026 209.26818225 175.06570074 210.72459043 175.06592107 212.18099862 C175.06636362 215.1028384 175.06681074 218.02467817 175.06726074 220.94651794 C175.06742483 222.03318798 175.06742483 222.03318798 175.06759223 223.14181095 C175.07122378 246.63804389 175.08714776 270.134246 175.11045111 293.63046714 C175.13503932 318.46755503 175.14876662 343.3046253 175.14996219 368.14172572 C175.15013364 370.86742986 175.15034907 373.59313399 175.15059662 376.31883812 C175.15065239 376.98999129 175.15070816 377.66114446 175.15076561 378.35263561 C175.15191688 389.15942773 175.16294514 399.96618823 175.17748367 410.77296967 C175.19183995 421.63190561 175.19483776 432.49079902 175.1870437 443.34974173 C175.18312831 449.23407584 175.18411013 455.11830341 175.19810104 461.00262451 C175.2107865 466.38700758 175.2096897 471.77120348 175.19751033 477.15558609 C175.19554403 479.10578182 175.19867453 481.05599058 175.20735469 483.00616799 C175.21839394 485.65349933 175.2109967 488.3001639 175.19896317 490.94747639 C175.20655836 491.70765579 175.21415355 492.46783518 175.2219789 493.25105032 C175.16626845 498.91393451 174.11791439 503.78784276 170.29187012 508.12986755 C165.39464053 511.76208387 163.24080098 512.51400119 157.14179993 512.53485107 C156.44674258 512.53852776 155.75168524 512.54220445 155.03556556 512.54599255 C152.69496764 512.55704916 150.35441409 512.56087659 148.01379395 512.56468201 C146.34014748 512.57094525 144.66650242 512.57759192 142.99285889 512.58459473 C138.43687233 512.60201924 133.88089629 512.61256079 129.32488465 512.62080026 C126.47882736 512.62594815 123.63277335 512.63202403 120.78671837 512.63831139 C111.8833311 512.65736894 102.97995215 512.67159794 94.0765484 512.67992336 C83.79709909 512.68969385 73.51786523 512.71600609 63.23849183 512.75642425 C55.29530619 512.78658513 47.35218229 512.80139227 39.40894049 512.80470437 C34.66403287 512.80705521 29.91935527 512.81601979 25.17450905 512.84116554 C20.7085073 512.8644503 16.24288693 512.86867791 11.77684021 512.85840416 C10.13979512 512.85790876 8.50273123 512.8642305 6.86574364 512.87796021 C4.6257645 512.89569229 2.38715204 512.88856794 0.14717102 512.87542725 C-1.10479159 512.8778156 -2.35675421 512.88020395 -3.64665508 512.88266468 C-7.81427055 512.29766206 -11.05617147 511.27401704 -14.17297363 508.38768005 C-17.87677091 503.07303676 -18.75496381 499.2897542 -18.67913151 492.89618015 C-18.68524487 492.06319691 -18.69135823 491.23021367 -18.69765684 490.37198851 C-18.71325989 487.58018302 -18.70038951 484.78924586 -18.68763733 481.99743652 C-18.69296236 479.97593934 -18.70002779 477.95444611 -18.70868438 475.93296045 C-18.72734425 470.37736475 -18.72099512 464.82203501 -18.71053135 459.26642811 C-18.70354889 453.27518002 -18.71953004 447.28398708 -18.73252869 441.29275513 C-18.75293757 430.23392705 -18.7549832 419.17516969 -18.74731223 408.11633226 C-18.74023996 397.89949913 -18.7401815 387.68269748 -18.74717522 377.46586418 C-18.74808655 376.09549166 -18.74899731 374.72511914 -18.7499075 373.35474662 C-18.75129063 371.2897312 -18.75268172 369.22471579 -18.75409364 367.15970039 C-18.76707472 347.96081659 -18.77218833 328.76194334 -18.76056004 309.5630579 C-18.76012207 308.83932023 -18.75968409 308.11558256 -18.75923285 307.36991345 C-18.75562601 301.49261777 -18.75179125 295.61532223 -18.74794192 289.7380267 C-18.73309372 266.81106035 -18.74187452 243.88421313 -18.76989746 220.95726013 C-18.80132109 195.19877099 -18.81629679 169.44035237 -18.80609745 143.6818437 C-18.80506067 140.93566638 -18.80407344 138.18948904 -18.80311394 135.44331169 C-18.80286505 134.76713284 -18.80261616 134.09095399 -18.80235974 133.39428488 C-18.7989189 123.1846868 -18.80822873 112.97515098 -18.82388496 102.76556587 C-18.84164766 91.15563524 -18.84132352 79.54583004 -18.81853331 67.93590099 C-18.80737059 62.01085743 -18.80427486 56.08609938 -18.82283401 50.16106796 C-18.83960128 44.73838264 -18.83333822 39.31623268 -18.80861723 33.89358228 C-18.80372125 31.93067664 -18.80728399 29.96772813 -18.82010467 28.00485826 C-18.83627049 25.33759975 -18.82165713 22.67219607 -18.79938602 20.0050211 C-18.8113777 19.24190887 -18.82336938 18.47879665 -18.83572444 17.69255981 C-18.73705218 11.91001871 -16.85035828 7.85026291 -13.17297363 3.38768005 C-8.80126168 0.37199329 -5.24273809 0.01021032 0 0 Z M14.82702637 32.38768005 C14.82702637 48.22768005 14.82702637 64.06768005 14.82702637 80.38768005 C41.22702637 80.38768005 67.62702637 80.38768005 94.82702637 80.38768005 C94.82702637 90.94768005 94.82702637 101.50768005 94.82702637 112.38768005 C68.42702637 112.38768005 42.02702637 112.38768005 14.82702637 112.38768005 C14.82702637 128.22768005 14.82702637 144.06768005 14.82702637 160.38768005 C30.66702637 160.38768005 46.50702637 160.38768005 62.82702637 160.38768005 C62.82702637 170.94768005 62.82702637 181.50768005 62.82702637 192.38768005 C46.98702637 192.38768005 31.14702637 192.38768005 14.82702637 192.38768005 C14.82702637 208.22768005 14.82702637 224.06768005 14.82702637 240.38768005 C41.22702637 240.38768005 67.62702637 240.38768005 94.82702637 240.38768005 C94.82702637 250.94768005 94.82702637 261.50768005 94.82702637 272.38768005 C68.42702637 272.38768005 42.02702637 272.38768005 14.82702637 272.38768005 C14.82702637 288.22768005 14.82702637 304.06768005 14.82702637 320.38768005 C30.66702637 320.38768005 46.50702637 320.38768005 62.82702637 320.38768005 C62.82702637 330.94768005 62.82702637 341.50768005 62.82702637 352.38768005 C46.98702637 352.38768005 31.14702637 352.38768005 14.82702637 352.38768005 C14.82702637 368.22768005 14.82702637 384.06768005 14.82702637 400.38768005 C41.22702637 400.38768005 67.62702637 400.38768005 94.82702637 400.38768005 C94.82702637 410.94768005 94.82702637 421.50768005 94.82702637 432.38768005 C68.42702637 432.38768005 42.02702637 432.38768005 14.82702637 432.38768005 C14.82702637 448.22768005 14.82702637 464.06768005 14.82702637 480.38768005 C56.73702637 480.38768005 98.64702637 480.38768005 141.82702637 480.38768005 C141.82702637 332.54768005 141.82702637 184.70768005 141.82702637 32.38768005 C99.91702637 32.38768005 58.00702637 32.38768005 14.82702637 32.38768005 Z "
          fill="#000000" transform="translate(68.1729736328125,-0.3876800537109375)"/>
    <path d="M0 0 C0.99902344 -0.01933594 1.99804688 -0.03867188 3.02734375 -0.05859375 C10.22098328 1.11720061 15.1746356 7.27395975 20.08740234 12.23535156 C20.86856415 13.01622131 21.64972595 13.79709106 22.45455933 14.60162354 C25.02395709 17.17240969 27.58620647 19.75019756 30.1484375 22.328125 C31.93304476 24.11646412 33.71809538 25.9043609 35.50357056 27.6918335 C39.71449369 31.90960111 43.92094187 36.13179697 48.12522185 40.35618377 C52.91452484 45.16789001 57.7095506 49.97387605 62.50505137 54.77940416 C72.36388829 64.65911094 82.21556291 74.54593383 92.0625 84.4375 C90.36395963 88.05833128 88.35145218 90.38005354 85.4921875 93.203125 C84.59628906 94.09257813 83.70039063 94.98203125 82.77734375 95.8984375 C81.84019531 96.81882812 80.90304687 97.73921875 79.9375 98.6875 C78.98261363 99.63234856 78.02818141 100.57765633 77.07421875 101.5234375 C74.74140913 103.83268338 72.40405914 106.13713203 70.0625 108.4375 C48.55487861 97.68368931 35.06576766 75.44076766 18.0625 58.4375 C18.0625 189.1175 18.0625 319.7975 18.0625 454.4375 C34.5625 437.9375 51.0625 421.4375 68.0625 404.4375 C71.90603532 406.35926766 73.85583212 407.9974133 76.828125 411.0078125 C77.71757812 411.90371094 78.60703125 412.79960937 79.5234375 413.72265625 C80.90402344 415.12837891 80.90402344 415.12837891 82.3125 416.5625 C83.25734856 417.51738637 84.20265633 418.47181859 85.1484375 419.42578125 C87.45768338 421.75859087 89.76213203 424.09594086 92.0625 426.4375 C90.70027203 429.48214891 89.16394581 431.58697874 86.8117981 433.94216919 C85.80664658 434.95578018 85.80664658 434.95578018 84.78118896 435.98986816 C84.04660461 436.72040405 83.31202026 437.45093994 82.55517578 438.20361328 C81.39394699 439.37009903 81.39394699 439.37009903 80.20925903 440.56015015 C77.64712189 443.13109471 75.07773187 445.69464874 72.5078125 448.2578125 C70.72634065 450.04063128 68.9451658 451.82374689 67.16427612 453.60714722 C63.42998547 457.3443878 59.692187 461.07808471 55.95166016 464.80908203 C51.62968421 469.120174 47.31496039 473.43842361 43.00393307 477.76046193 C38.85339571 481.92117479 34.69724623 486.07623966 30.53869247 490.22893906 C28.77095514 491.99534085 27.00470607 493.76323332 25.23996353 495.53262711 C22.77431644 498.00334492 20.30236312 500.4675743 17.82861328 502.93017578 C17.09807739 503.66476013 16.3675415 504.39934448 15.61486816 505.15618896 C14.9391275 505.82628998 14.26338684 506.49639099 13.56716919 507.1867981 C12.98350649 507.76970675 12.39984379 508.35261539 11.79849434 508.95318794 C8.28510026 511.95721456 5.32940118 512.74772771 0.75 512.8125 C-0.15363281 512.84085938 -1.05726563 512.86921875 -1.98828125 512.8984375 C-9.63397851 511.70348084 -14.77039906 506.04595424 -20 500.79492188 C-21.15974083 499.64788536 -21.15974083 499.64788536 -22.34291077 498.47767639 C-24.88227162 495.96161344 -27.41037911 493.43460241 -29.9375 490.90625 C-31.70079684 489.15005504 -33.46439168 487.39415925 -35.22827148 485.6385498 C-38.91503393 481.96521269 -42.5958276 478.28601408 -46.27294922 474.60302734 C-50.05452048 470.81671716 -53.84475329 467.03951131 -57.64501953 463.27197266 C-62.23554115 458.7204582 -66.81381203 454.15699323 -71.38256836 449.58363342 C-73.12661338 447.84128633 -74.87466536 446.10294085 -76.62670898 444.36863708 C-79.06656053 441.95079856 -81.49015837 439.51776518 -83.91015625 437.08007812 C-84.64146255 436.36203506 -85.37276886 435.643992 -86.12623596 434.90419006 C-86.77946335 434.23975388 -87.43269073 433.57531769 -88.10571289 432.89074707 C-88.68011612 432.31705635 -89.25451935 431.74336563 -89.84632874 431.15229034 C-90.9375 429.4375 -90.9375 429.4375 -90.74206543 427.3705368 C-89.52001765 424.43446318 -87.50517106 422.67162009 -85.24609375 420.453125 C-84.78139175 419.99266785 -84.31668976 419.53221069 -83.83790588 419.05780029 C-82.35718181 417.59382189 -80.86635481 416.14063959 -79.375 414.6875 C-78.36715336 413.69470551 -77.35998367 412.7012233 -76.35351562 411.70703125 C-73.88930539 409.27583527 -71.41592671 406.85421132 -68.9375 404.4375 C-50.50390606 420.23772338 -34.10497571 438.27002429 -16.9375 455.4375 C-16.9375 324.0975 -16.9375 192.7575 -16.9375 57.4375 C-33.7675 74.2675 -50.5975 91.0975 -67.9375 108.4375 C-73.2945282 103.84576155 -78.41066946 99.23879393 -83.4375 94.3125 C-84.17742187 93.60996094 -84.91734375 92.90742187 -85.6796875 92.18359375 C-86.37320312 91.50167969 -87.06671875 90.81976563 -87.78125 90.1171875 C-88.72774414 89.20042236 -88.72774414 89.20042236 -89.69335938 88.26513672 C-90.9375 86.4375 -90.9375 86.4375 -90.70811844 84.53952122 C-89.80113256 82.06552959 -88.71195686 80.83719254 -86.85174561 78.9775238 C-86.19287857 78.31164246 -85.53401154 77.64576111 -84.85517883 76.95970154 C-83.76429207 75.88028038 -83.76429207 75.88028038 -82.65136719 74.77905273 C-81.88872055 74.01275543 -81.12607391 73.24645813 -80.34031677 72.4569397 C-77.81235527 69.92085964 -75.27367547 67.39581658 -72.734375 64.87109375 C-70.97607181 63.11330909 -69.21828645 61.35500631 -67.46099854 59.59620667 C-63.30085441 55.43616384 -59.13337418 51.28357425 -54.96296525 47.13382441 C-50.69947012 42.88999898 -46.44793638 38.63431572 -42.19730759 34.3776083 C-38.56716605 30.74412423 -34.93205221 27.1156489 -31.29532623 23.48875618 C-29.55088385 21.74816302 -27.80778797 20.00621929 -26.06606293 18.26290703 C-23.62934152 15.8258146 -21.18622058 13.3953262 -18.74121094 10.96655273 C-18.02205002 10.2449144 -17.3028891 9.52327606 -16.56193542 8.7797699 C-11.41734467 3.68956792 -7.56314227 0.00973377 0 0 Z "
          fill="#000000" transform="translate(369.9375,-0.4375)"/>
</svg>
